<?xml version="1.0" encoding="utf-8"?>
<!-- Generator: Adobe Illustrator 16.0.4, SVG Export Plug-In . SVG Version: 6.00 Build 0)  -->
<!DOCTYPE svg PUBLIC "-//W3C//DTD SVG 1.1//EN" "http://www.w3.org/Graphics/SVG/1.1/DTD/svg11.dtd">
<svg version="1.1" id="Capa_1" xmlns="http://www.w3.org/2000/svg" xmlns:xlink="http://www.w3.org/1999/xlink" x="0px" y="0px"
	 width="64px" height="64px" viewBox="0 0 64 64" enable-background="new 0 0 64 64" xml:space="preserve">
<g>
	<path d="M32.859,20.058c0.773,0.402,4.457,0.402,5.229,0c0.501-0.26,0.126-2.053-0.176-3.461c1.162,1.433,2.918,3.208,5.267,4.507
		c0,0-1.047-2.722-4.529-5.373c1.641,0.868,3.994,1.832,6.721,2.097c0,0-1.943-1.993-5.999-3.064c1.812,0.17,4.212,0.155,6.69-0.558
		c0,0-3.17-1.408-8.225-0.389c0.307-1.441,0.795-3.532,0.251-3.815c-0.772-0.402-4.456-0.402-5.229,0
		c-0.746,0.388,0.455,4.186,0.455,5.028C33.314,15.871,32.114,19.67,32.859,20.058z"/>
	<path d="M32.859,31.371c0.773,0.402,4.457,0.402,5.229,0c0.746-0.388-0.454-4.186-0.454-5.028c0-0.841,1.2-4.64,0.454-5.028
		c-0.772-0.402-4.456-0.402-5.229,0c-0.746,0.388,0.455,4.186,0.455,5.028C33.314,27.185,32.114,30.983,32.859,31.371z"/>
	<path d="M38.089,43.941c-0.644-0.588-4.358,0.029-5.229,0c-0.743-0.023,1.094,4.729,0.402,4.451
		c-0.625-0.252-0.49-3.945-1.161-3.875c-0.867,0.092-4.39,1.209-4.854,1.946c-0.448,0.712,2.015,3.704,2.292,4.498
		s0.64,4.606,1.449,4.836c0.776,0.22,3.823-1.346,4.491-1.8c0.359-0.245,2.348,0.346,2.61,0c0.511-0.669-0.304-4.2-0.454-5.027
		C37.484,48.143,38.71,44.51,38.089,43.941z"/>
	<path d="M22.569,34.796c0.867,0.086,4.286-1.285,4.854-1.946c0.548-0.638-1.979-3.717-2.292-4.498
		c-0.313-0.781-0.611-4.754-1.449-4.836c-0.867-0.086-4.286,1.285-4.854,1.946c-0.548,0.638,1.979,3.717,2.292,4.498
		C21.433,30.741,21.732,34.713,22.569,34.796z"/>
	<path d="M29.341,38.852c-0.313-0.781-0.612-4.752-1.449-4.836c-0.867-0.086-4.286,1.285-4.854,1.946
		C22.49,36.6,25.017,39.68,25.33,40.46c0.002,0.006,0.005,0.017,0.007,0.022c-4.295-0.565-6.929,0.607-6.929,0.607
		c2.478,0.713,4.878,0.729,6.69,0.559c-4.056,1.07-5.999,3.063-5.999,3.063c2.695-0.262,5.028-1.208,6.666-2.067
		c0.23,1.272,0.533,2.604,1.014,2.651c0.867,0.086,4.286-1.285,4.854-1.946C32.181,42.712,29.654,39.633,29.341,38.852z"/>
	<path d="M45.455,37.657c0,0-2.665-1.185-7.002-0.597c1.773-0.547,4.12-1.529,6.234-3.27c0,0-2.783-0.035-6.408,2.075
		c1.4-1.161,3.088-2.869,4.336-5.125c0,0-2.051,0.791-4.324,3.271c0.08-0.695,0.059-1.248-0.202-1.383
		c-0.772-0.402-4.456-0.402-5.229,0c-0.746,0.389,0.455,4.186,0.455,5.028c0,0.841-1.201,4.64-0.455,5.028
		c0.773,0.401,4.457,0.401,5.229,0c0.261-0.136,0.281-0.689,0.202-1.384c2.273,2.48,4.324,3.271,4.324,3.271
		c-1.365-2.468-3.254-4.278-4.721-5.435c0-0.007-0.002-0.013-0.004-0.019c1.646,0.894,4.078,1.926,6.916,2.2
		c0,0-2.035-2.075-6.27-3.127C40.373,38.386,42.873,38.4,45.455,37.657z"/>
</g>
</svg>
