<?xml version="1.0" encoding="utf-8"?>
<!-- Generator: Adobe Illustrator 16.0.4, SVG Export Plug-In . SVG Version: 6.00 Build 0)  -->
<!DOCTYPE svg PUBLIC "-//W3C//DTD SVG 1.1//EN" "http://www.w3.org/Graphics/SVG/1.1/DTD/svg11.dtd">
<svg version="1.1" id="Capa_1" xmlns="http://www.w3.org/2000/svg" xmlns:xlink="http://www.w3.org/1999/xlink" x="0px" y="0px"
	 width="64px" height="64px" viewBox="0 0 64 64" enable-background="new 0 0 64 64" xml:space="preserve">
<g>
	<polygon points="47.291,42.846 47.291,42.845 47.29,42.844 	"/>
	<path d="M53.259,32.877c0.216-0.804,0.354-1.659,0.333-2.547c-0.004-0.221-0.023-0.445-0.064-0.665
		c-0.053-0.199-0.084-0.489-0.31-0.523c-0.438,0.005-0.884,0.206-1.307,0.402c-0.425,0.202-0.865,0.411-1.349,0.508
		c-0.461,0.104-1.061,0.032-1.367-0.399c-0.157-0.194-0.279-0.448-0.25-0.713c0.025-0.262,0.152-0.5,0.301-0.709
		c0.295-0.425,0.667-0.792,1.043-1.157c0.761-0.723,1.581-1.416,2.418-2.12c0.391-0.341,0.936-0.72,0.822-1.291
		c-0.047-0.275-0.131-0.542-0.295-0.75c-0.185-0.21-0.504-0.105-0.705,0.078c-0.446,0.336-0.728,0.863-1.155,1.267
		c-0.112,0.095-0.217,0.207-0.392,0.242c-0.096,0.026-0.197-0.092-0.187-0.17c-0.01-0.082-0.002-0.159,0.013-0.233
		c0.058-0.296,0.176-0.571,0.299-0.84c0.238-0.534,0.481-1.087,0.49-1.679c-0.004-0.288-0.059-0.593-0.264-0.795
		c-0.201-0.168-0.527-0.25-0.807-0.179c-0.584,0.137-0.904,0.743-1.172,1.273c-0.271,0.551-0.478,1.138-0.691,1.728
		c-0.395,1.183-1.003,2.375-1.988,3.234c-0.951,0.883-2.055,1.591-3.042,2.455c-1.963,1.735-3.833,3.7-5.313,5.992
		c-0.702,1.163-1.295,2.416-1.771,3.71c-0.231,0.648-0.483,1.294-0.608,1.988c-0.068,0.34-0.18,0.685-0.215,1.021
		c-0.021,0.17-0.054,0.356-0.063,0.513c0.001,0.075,0.008,0.162,0.036,0.199c0.017,0.02,0.023,0.02,0.105-0.027
		c1.332-0.715,1.108-2.422,1.807-3.672c0.572-1.313,1.297-2.561,2.104-3.754c0.81-1.199,1.738-2.322,2.794-3.319
		c0.522-0.505,1.059-0.994,1.617-1.463c0.279-0.235,0.562-0.464,0.857-0.682c0.148-0.109,0.299-0.215,0.457-0.313
		c0.08-0.049,0.162-0.096,0.252-0.138c0.047-0.02,0.094-0.04,0.156-0.052c0.032-0.005,0.07-0.012,0.129,0.009
		c0.082,0.034,0.113,0.143,0.103,0.132c-0.022,0.192-0.113,0.264-0.177,0.328c-0.066,0.075-0.141,0.135-0.217,0.193
		c-0.15,0.13-0.301,0.207-0.457,0.32l-0.818,0.694c-0.557,0.443-1.043,1.009-1.568,1.508c-1.037,1.015-2.009,2.11-2.844,3.287
		c-0.834,1.178-1.443,2.526-2.021,3.848c-0.14,0.335-0.274,0.671-0.391,1.012c-0.056,0.17-0.111,0.342-0.15,0.512
		c-0.033,0.09-0.033,0.203-0.035,0.264c0.652-0.299,1.242-0.687,1.636-1.275c0.789-1.188,1.298-2.584,2.112-3.794
		c0.783-1.243,1.804-2.278,2.808-3.308c0.254-0.256,0.503-0.512,0.769-0.76l0.055-0.048c0.021,0.014,0.009-0.094,0.181-0.023
		c0.021,0.266-0.021,0.111-0.028,0.187l-0.043,0.054l-0.177,0.208l-0.356,0.403l-1.381,1.629c-0.863,1.128-1.688,2.269-2.324,3.529
		l-0.25,0.464l-0.115,0.211l-0.113,0.238l-0.449,0.951l-0.203,0.429c0.004,0.001,0.01,0.004,0.015,0.003l0.121,0.025l0.254,0.033
		c0.347,0.043,0.685,0.058,0.929-0.166c0.479-0.455,0.777-1.11,1.148-1.689c0.371-0.587,0.787-1.139,1.216-1.676
		c0.864-1.065,1.787-2.067,2.761-3c0.488-0.463,0.99-0.911,1.53-1.31c0.278-0.188,0.544-0.398,0.905-0.474
		c0.039-0.013,0.113,0,0.166,0.013l0.055,0.031c0.04,0.013,0.059,0.079,0.061,0.116c-0.033,0.139-0.109,0.174-0.17,0.241
		c-0.132,0.113-0.277,0.201-0.422,0.285c-1.146,0.633-2.04,1.612-2.939,2.52c-0.867,0.945-1.696,1.91-2.422,2.931
		c-0.375,0.501-0.701,1.024-1.008,1.56c-0.131,0.277-0.287,0.553-0.395,0.828c-0.051,0.135-0.115,0.307-0.092,0.396
		c0.035,0.07,0.24,0.027,0.371,0.009c0.599-0.095,1.16-0.33,1.556-0.78c0.351-0.476,0.737-0.943,1.136-1.377
		c1.622-1.719,3.324-3.256,5.119-4.52c0.227-0.157,0.46-0.297,0.7-0.43c0.129-0.049,0.253-0.131,0.386-0.151
		c0.068-0.002,0.122-0.054,0.223-0.015c0.088,0.129-0.039,0.168-0.063,0.222c-0.415,0.362-0.896,0.586-1.32,0.896
		c-0.864,0.588-1.666,1.227-2.417,1.881c-0.75,0.656-1.451,1.33-2.085,2.031c-0.315,0.35-0.616,0.706-0.875,1.084
		c-0.13,0.188-0.248,0.383-0.333,0.588c-0.095,0.207-0.109,0.448,0.127,0.551c0.121,0.096,0.208,0.231,0.264,0.379
		c0.004,0.008,0.006,0.017,0.008,0.025c0.021,0.057,0.052,0.11,0.055,0.17c0.001,0.105,0.045,0.211,0.141,0.239
		c0.094,0.033,0.203-0.006,0.301-0.036c0.395-0.16,0.733-0.426,1.058-0.681c0.644-0.522,1.219-1.083,1.759-1.63
		c0.541-0.549,1.072-1.062,1.598-1.533c0.266-0.232,0.528-0.457,0.797-0.661c0.135-0.101,0.269-0.198,0.41-0.282
		c0.115-0.054,0.248-0.162,0.383-0.129c0.012,0.004,0.023,0.006,0.035,0.012c0.013,0.006,0.025,0.004,0.039,0.013
		c0.01,0.024,0.002,0.046,0.002,0.067c0.002,0.009,0.01,0.009,0.01,0.019c0,0.002-0.008,0.009-0.008,0.011
		c-0.023,0.118-0.166,0.201-0.235,0.285c-0.117,0.104-0.237,0.198-0.356,0.29c-0.238,0.188-0.49,0.341-0.716,0.513
		c-0.435,0.364-0.864,0.682-1.226,1.021c-0.516,0.531-0.967,1.008-1.329,1.447c-0.007,0.009-0.013,0.016-0.019,0.022
		c-0.115,0.142-0.224,0.281-0.319,0.416c-0.099,0.14-0.192,0.271-0.25,0.411c-0.023,0.057-0.011,0.1,0.011,0.135
		c0.014,0.025,0.038,0.045,0.066,0.063c0.021,0.013,0.035,0.03,0.058,0.04c0.004,0.002,0.008,0.003,0.013,0.005
		c0.029,0.012,0.06,0.021,0.086,0.028c0.01,0.002,0.019,0.006,0.029,0.008c0.045,0.013,0.089,0.025,0.145,0.037
		c0.047,0.012,0.084,0.031,0.125,0.047c0.019,0.008,0.037,0.014,0.055,0.021c0.093,0.04,0.173,0.087,0.234,0.144
		c0.002,0.002,0.004,0.002,0.006,0.005c0,0.001,0,0.001,0.002,0.002c0.097,0.088,0.158,0.194,0.188,0.317
		c0.005,0.021,0.007,0.035,0.009,0.051c0.002,0.009,0.004,0.019,0.006,0.027c0.002,0.025,0.014,0.047,0.014,0.073
		c0,0.027,0.01,0.048,0.014,0.073c0,0.002,0,0.002,0,0.004c0.004,0.027,0.01,0.053,0.016,0.078c0.01,0.04,0.027,0.087,0.055,0.136
		c-0.027-0.048-0.045-0.094-0.055-0.133c0.012,0.049,0.033,0.093,0.056,0.136c0,0.001,0,0.001,0.001,0.002
		c0.001,0.002,0.001,0.003,0.002,0.005c0.03,0.053,0.072,0.107,0.136,0.163c0.285,0.231,0.831,0.27,1.497,0.401
		c0.088,0.042,0.17,0.048,0.25,0.032c0.012,0,0.025-0.008,0.038-0.01c0.07-0.021,0.138-0.056,0.199-0.105
		c0.011-0.01,0.022-0.021,0.034-0.032c0.056-0.051,0.109-0.11,0.158-0.176c0.021-0.026,0.039-0.058,0.06-0.085
		c0.043-0.064,0.086-0.128,0.121-0.192c0.204-0.366,0.379-0.797,0.472-1.284c0.051-0.244,0.049-0.5,0.01-0.765
		c-0.016-0.074-0.02-0.151-0.016-0.228c0.001-0.028,0.008-0.056,0.012-0.084c0.008-0.049,0.018-0.094,0.034-0.142
		c0.015-0.04,0.028-0.082,0.052-0.118c0.037-0.066,0.084-0.131,0.147-0.184c0.237-0.155,0.483-0.314,0.737-0.48
		c0.125-0.082,0.252-0.166,0.381-0.252l0.334-0.334c0.884-0.908,1.494-2.275,1.642-3.797c0.011-0.377,0.007-0.793-0.239-1.113
		C53.047,33.742,53.171,33.257,53.259,32.877z"/>
	<path d="M49.207,38.271c-0.339,0.242-0.732,0.571-1.124,0.942C48.416,38.902,48.809,38.604,49.207,38.271z"/>
	<path d="M36.396,30.343c0.022,0.006,0.047,0.007,0.066,0.017c-0.004-0.002-0.006-0.006-0.011-0.008
		C36.436,30.344,36.415,30.347,36.396,30.343z"/>
	<path d="M46.377,41.164c-0.111,0.152-0.18,0.268-0.213,0.352C46.217,41.396,46.295,41.282,46.377,41.164z"/>
	<path d="M46.874,40.525c0.326-0.385,0.711-0.797,1.147-1.25c-0.373,0.357-0.732,0.732-1,1.064
		C46.966,40.41,46.925,40.462,46.874,40.525z"/>
	<path d="M53.209,36.95c0.064-0.185,0.121-0.364,0.171-0.539c-0.067,0.241-0.151,0.471-0.241,0.696
		C53.16,37.052,53.189,37.006,53.209,36.95z"/>
	<path d="M25.315,18.479c0.107,1.956,0.105,3.857,0.268,5.64c0.029,0.899,0.286,1.737,0.725,2.456
		c0.417,0.721,1.02,1.336,1.773,1.561c0.749,0.235,1.515,0.125,2.208,0.002c0.174-0.04,0.346-0.08,0.515-0.119
		c0.086-0.019,0.164-0.045,0.259-0.042l0.136-0.002l0.118,0.066c0.298,0.214,0.352,0.57,0.505,0.844
		c0.49,1.208,1.672,1.718,2.559,1.749c0.229,0.036,0.442-0.004,0.643-0.023c0.205-0.009,0.39-0.055,0.559-0.112
		c0.257-0.052,0.484-0.175,0.686-0.185c0.021-0.001,0.039,0.008,0.06,0.01c0.043,0.003,0.087,0.003,0.127,0.022
		c0.009,0.005,0.014,0.011,0.022,0.017c0.019,0.011,0.032,0.025,0.049,0.037c0.078,0.06,0.129,0.132,0.168,0.2
		c0.041,0.069,0.068,0.134,0.098,0.179c0.052,0.116,0.078,0.175,0.078,0.175c0.012,0.028,0.033,0.056,0.047,0.085
		c-0.012-0.024-0.021-0.044-0.029-0.058c0.012,0.02,0.025,0.049,0.045,0.087c0.014,0.025,0.027,0.05,0.041,0.075
		c0.062,0.109,0.158,0.258,0.313,0.433c0.174,0.166,0.397,0.39,0.748,0.48c0.327,0.129,0.745,0.22,1.188,0.123
		c0.909-0.215,1.672-1.106,2.641-1.913c0.08-0.068,0.172-0.148,0.252-0.218c0.412-0.368,0.83-0.733,1.197-1.044
		c0.029-0.025,0.054-0.046,0.082-0.071c0.271-0.233,0.549-0.473,0.832-0.718c0.285-0.237,0.596-0.476,0.799-0.804
		c0.217-0.32,0.271-0.723,0.187-1.116c-0.103-0.382-0.249-0.782-0.442-1.149c-0.099-0.184-0.178-0.384-0.318-0.541l-0.193-0.25
		l-0.248-0.19c-0.35-0.244-0.805-0.327-1.195-0.573c-0.09-0.075-0.188-0.144-0.271-0.226l-0.18-0.307
		c-0.125-0.205-0.16-0.43-0.245-0.646c-0.162-0.429-0.327-0.863-0.493-1.302c-0.205-0.419-0.463-0.819-0.695-1.236
		c-0.275-0.387-0.59-0.749-0.886-1.13c-0.362-0.318-0.726-0.683-1.114-0.956c-0.431-0.237-0.832-0.533-1.309-0.701
		c-0.459-0.201-0.922-0.4-1.408-0.522c-0.242-0.064-0.475-0.161-0.727-0.198l-0.764-0.101c-0.562-0.014-1.014-0.4-1.404-0.723
		c-0.399-0.345-0.746-0.738-1.13-1.078c-0.737-0.719-1.622-1.28-2.534-1.759c-0.917-0.48-1.908-0.807-2.915-0.992l-0.754-0.063
		c-0.251-0.023-0.514,0.038-0.771,0.053c-0.139,0.013-0.245,0.022-0.372,0.055c-0.122,0.03-0.279,0.046-0.307,0.093
		c-0.116,0.138-0.107,0.414-0.045,0.644C25.159,14.457,25.204,16.536,25.315,18.479z M39.078,24.947
		c0.176-0.244,0.428-0.426,0.701-0.545c0.555-0.204,1.214-0.194,1.678,0.15c0.234,0.148,0.389,0.366,0.509,0.592
		c0.093,0.232,0.142,0.474,0.087,0.686c-0.012,0.108-0.047,0.204-0.094,0.29c-0.016,0.043-0.044,0.071-0.066,0.107
		c-0.004,0.006-0.008,0.012-0.012,0.017c-0.023,0.035-0.039,0.078-0.066,0.108c-0.028,0.043-0.064,0.072-0.1,0.106
		c-0.005,0.005-0.01,0.012-0.016,0.017c-0.074,0.068-0.149,0.125-0.209,0.176c-0.012,0.007-0.018,0.008-0.028,0.015
		c-0.022,0.012-0.034,0.017-0.053,0.028c-0.155,0.083-0.263,0.131-0.263,0.131s-0.131,0.049-0.361,0.136
		c-0.07,0.019-0.154,0.052-0.244,0.075c-0.064,0.019-0.114,0.032-0.123,0.029c-0.012-0.004-0.02-0.008-0.031-0.012
		c-0.01-0.001-0.018,0.005-0.027,0.003c-0.16-0.061-0.342-0.13-0.539-0.205c-0.182-0.11-0.404-0.183-0.579-0.382
		c-0.107-0.083-0.179-0.187-0.229-0.301c-0.072-0.1-0.119-0.255-0.143-0.386C38.823,25.501,38.896,25.187,39.078,24.947z
		 M38.012,26.857c0.047-0.086,0.161-0.19,0.309-0.151c0.104,0.037,0.189,0.112,0.229,0.182c0.191,0.295,0.188,0.617,0.25,0.867
		c0.059,0.259,0.168,0.506,0.366,0.655c0.185,0.169,0.444,0.214,0.681,0.214c0.235-0.002,0.469-0.07,0.674-0.126
		c0.209-0.064,0.402-0.12,0.582-0.133c0.047-0.003,0.104,0.002,0.153,0.017c0.006,0.002,0.009,0.007,0.015,0.01
		c0.023,0.011,0.053,0.017,0.062,0.042c0,0.009-0.008,0.011-0.009,0.019c-0.012,0.063-0.043,0.108-0.079,0.144
		c-0.007,0.006-0.007,0.019-0.015,0.025c-0.008,0.008-0.017,0.013-0.025,0.02c-0.016,0.013-0.03,0.024-0.045,0.035
		c-0.029,0.022-0.057,0.044-0.082,0.059c-0.018,0.011-0.033,0.019-0.049,0.028c-0.043,0.023-0.076,0.039-0.1,0.048
		s-0.037,0.015-0.035,0.018c0,0-0.14,0.04-0.384,0.11c-0.014,0.004-0.038,0.004-0.053,0.008c-0.062,0.015-0.14,0.022-0.213,0.032
		c-0.101,0.014-0.205,0.019-0.326,0.018c-0.047,0-0.101-0.007-0.149-0.01c-0.102-0.006-0.193-0.001-0.304-0.02
		c-0.211-0.042-0.45-0.112-0.666-0.246c-0.229-0.122-0.422-0.317-0.596-0.546c-0.065-0.133-0.132-0.269-0.198-0.407l-0.066-0.418
		C37.934,27.172,37.932,27.037,38.012,26.857z M37.286,28.39c0.098,0.005,0.077,0.025,0.116,0.045
		c0.186,0.297,0.217,0.509,0.332,0.742c0.106,0.218,0.222,0.429,0.406,0.558c0.172,0.144,0.397,0.203,0.607,0.256
		c0.215,0.036,0.422,0.067,0.617,0.079c0.267,0.026,0.488,0.035,0.684,0.057c0.07,0.008,0.143,0.014,0.201,0.029
		c0.014,0.004,0.035,0.003,0.049,0.007c0.006,0.002,0,0.005,0.004,0.008c0.025,0.014,0.034,0.032,0.027,0.051
		c-0.003,0.005-0.005,0.007-0.01,0.012c-0.008,0.011-0.016,0.018-0.026,0.025c-0.006,0.004-0.01,0.012-0.015,0.014
		c-0.014,0.01-0.025,0.013-0.038,0.02c-0.011,0.005-0.019,0.011-0.028,0.015c-0.01,0.005-0.023,0.013-0.031,0.017
		c-0.056,0.025-0.086,0.038-0.086,0.038s-0.121,0.047-0.332,0.13c-0.103,0.052-0.244,0.059-0.397,0.096
		c-0.154,0.002-0.347,0.012-0.531-0.045c-0.384-0.073-0.821-0.275-1.187-0.621c-0.188-0.171-0.35-0.379-0.447-0.651
		c-0.059-0.151-0.064-0.253-0.076-0.411l0.006-0.199c0.002-0.035,0.004-0.068,0.012-0.11c0.002-0.018,0.008-0.046,0.023-0.081
		C37.195,28.438,37.189,28.407,37.286,28.39z M34.124,21.322c0.056-0.118,0.149-0.257,0.235-0.363
		c0.192-0.22,0.449-0.394,0.731-0.471c0.283-0.073,0.565-0.055,0.828-0.01c0.245,0.044,0.505,0.114,0.71,0.262
		c0.194,0.152,0.336,0.339,0.413,0.533c0.088,0.188,0.124,0.379,0.134,0.545c0.004,0.039-0.012,0.062-0.013,0.098
		c-0.003,0.102-0.013,0.198-0.036,0.277c-0.005,0.015-0.002,0.039-0.007,0.053c-0.001,0.017-0.011,0.026-0.015,0.04
		c-0.008,0.026-0.018,0.051-0.029,0.072c-0.03,0.053-0.062,0.097-0.077,0.133c-0.034,0.054-0.051,0.083-0.051,0.083
		s-0.026,0.022-0.074,0.064c-0.034,0.023-0.077,0.065-0.129,0.106c-0.019,0.015-0.04,0.03-0.063,0.043
		c-0.011,0.006-0.017,0.013-0.027,0.018c-0.074,0.029-0.162,0.07-0.258,0.104c-0.004,0.001-0.006,0.001-0.008,0.002
		c-0.046,0.015-0.088,0.034-0.141,0.04c-0.163,0.047-0.352,0.048-0.559,0.057c-0.205-0.014-0.434-0.028-0.662-0.11
		c-0.223-0.061-0.487-0.208-0.651-0.389c-0.188-0.208-0.351-0.424-0.39-0.754C34.006,21.586,34.05,21.424,34.124,21.322z
		 M33.055,22.92c0.006-0.045,0.002-0.076,0.021-0.146l0.015-0.037c-0.035,0.012,0.104-0.105,0.163-0.053
		c0.038,0.018,0.071,0.078,0.071,0.078c0.013,0.028,0.021,0.052,0.027,0.071c0.053,0.164,0.088,0.314,0.127,0.471
		c0.084,0.304,0.141,0.608,0.306,0.857c0.133,0.268,0.356,0.46,0.599,0.588c0.256,0.095,0.542,0.095,0.785-0.002
		c0.248-0.082,0.454-0.249,0.643-0.397c0.14-0.114,0.269-0.227,0.41-0.305c0.014-0.008,0.026-0.016,0.041-0.023
		c0.028-0.014,0.053-0.039,0.084-0.048c0.086-0.005,0.07,0.08,0.053,0.116c-0.014,0.046-0.029,0.088-0.056,0.121
		c-0.046,0.072-0.087,0.137-0.135,0.188c-0.034,0.042-0.054,0.059-0.084,0.092c-0.019,0.022-0.038,0.042-0.056,0.06
		c-0.062,0.066-0.105,0.108-0.133,0.135c0.018-0.018,0.043-0.042,0.072-0.074c-0.033,0.035-0.066,0.07-0.104,0.103
		c0,0-0.131,0.091-0.361,0.25c-0.01,0.009-0.027,0.011-0.038,0.018c-0.028,0.019-0.063,0.034-0.099,0.047
		c-0.1,0.037-0.211,0.066-0.333,0.113c-0.021,0.004-0.048,0.003-0.07,0.007c-0.013,0.002-0.028,0.002-0.041,0.004
		c-0.165,0.021-0.351,0.023-0.542-0.01c-0.115-0.034-0.24-0.064-0.365-0.107c-0.113-0.071-0.229-0.144-0.349-0.219
		c-0.207-0.189-0.413-0.416-0.521-0.727c-0.084-0.148-0.09-0.299-0.112-0.451c-0.023-0.139-0.039-0.326-0.027-0.48L33.055,22.92z
		 M31.656,24.89c0.006-0.032,0.002-0.051,0.019-0.092c0.018-0.126,0.251-0.125,0.269-0.071c0.181,0.143,0.244,0.289,0.335,0.433
		c0.173,0.28,0.3,0.55,0.504,0.803c0.105,0.101,0.213,0.292,0.316,0.316c0.118,0.077,0.27,0.108,0.412,0.138
		c0.59,0.089,1.174-0.028,1.602-0.26c0.217-0.108,0.402-0.263,0.611-0.287c0.047-0.011,0.119,0.005,0.135,0.057
		c0.022,0.053-0.019,0.095-0.024,0.138c-0.004,0.01-0.013,0.015-0.019,0.025c-0.012,0.023-0.027,0.04-0.043,0.06
		c-0.028,0.036-0.055,0.078-0.08,0.11c-0.059,0.056-0.111,0.099-0.159,0.135c-0.046,0.033-0.071,0.047-0.103,0.066
		c0,0.001-0.002,0.001-0.002,0.002c-0.003,0.002-0.006,0.003-0.008,0.004c-0.015,0.009-0.04,0.026-0.051,0.033
		c-0.025,0.014-0.044,0.024-0.042,0.027c0,0-0.149,0.07-0.416,0.18c-0.142,0.028-0.308,0.097-0.509,0.112
		c-0.065,0.01-0.15,0.001-0.221,0.005c-0.049,0.003-0.099,0.003-0.148,0.003c-0.104,0.001-0.194,0.014-0.307,0.007
		c-0.248-0.027-0.517-0.083-0.785-0.198c-0.135-0.053-0.26-0.148-0.396-0.226c-0.112-0.106-0.222-0.188-0.333-0.326
		c-0.196-0.255-0.375-0.511-0.497-0.863c-0.036-0.085-0.036-0.161-0.057-0.242C31.66,24.979,31.649,24.918,31.656,24.89z
		 M27.951,17.482c0.096-0.273,0.274-0.521,0.508-0.696c0.236-0.171,0.514-0.281,0.798-0.317c0.285-0.04,0.572,0.031,0.819,0.144
		c0.217,0.115,0.442,0.291,0.575,0.483c0.146,0.19,0.238,0.407,0.267,0.61c0.04,0.203,0.024,0.399-0.022,0.556
		c-0.041,0.165-0.125,0.284-0.202,0.376c-0.007,0.011-0.016,0.014-0.024,0.023c-0.019,0.022-0.038,0.041-0.058,0.056
		c-0.049,0.039-0.097,0.068-0.126,0.096c-0.051,0.037-0.079,0.057-0.079,0.057s-0.01,0.005-0.011,0.006
		c0.004-0.002,0.008-0.003,0.012-0.005c0,0-0.025,0.012-0.035,0.016c-0.037,0.019-0.128,0.065-0.305,0.137
		c-0.053,0.02-0.132,0.033-0.198,0.051c-0.021,0.006-0.041,0.011-0.063,0.016c-0.146,0.035-0.313,0.046-0.505,0.041
		c-0.01,0-0.02,0.001-0.03,0c-0.061-0.003-0.11,0.009-0.175,0c-0.203-0.025-0.423-0.108-0.625-0.243
		c-0.187-0.127-0.381-0.332-0.497-0.574C27.865,18.063,27.851,17.755,27.951,17.482z M27.023,19.524
		c0.024-0.04,0.122-0.069,0.154-0.061l0.086,0.023c0.043,0.02,0.077,0.041,0.113,0.063c0.063,0.045,0.123,0.091,0.177,0.14
		c0.112,0.098,0.211,0.203,0.303,0.303c0.189,0.197,0.374,0.379,0.59,0.51c0.216,0.12,0.449,0.214,0.684,0.202
		c0.232,0.01,0.456-0.043,0.65-0.112c0.203-0.053,0.366-0.166,0.521-0.236c0.149-0.084,0.278-0.158,0.385-0.218
		c0.054-0.03,0.102-0.057,0.148-0.073c0.019-0.005,0.026-0.003,0.031,0.001c0.001,0.001,0.003,0,0.004,0.001
		c0.009,0.014-0.04,0.064-0.045,0.067c-0.048,0.045-0.074,0.069-0.074,0.069s-0.103,0.095-0.284,0.262
		c-0.187,0.161-0.464,0.382-0.869,0.535c-0.195,0.09-0.43,0.133-0.685,0.087c-0.246-0.049-0.488-0.149-0.73-0.267
		c-0.238-0.125-0.476-0.273-0.695-0.457c-0.104-0.109-0.216-0.173-0.315-0.323c-0.045-0.067-0.11-0.14-0.132-0.206l-0.033-0.1
		l-0.016-0.05C26.972,19.619,26.998,19.572,27.023,19.524z M26.826,21.643c0.116-0.129,0.2-0.081,0.251-0.072
		c0.049,0.019,0.09,0.041,0.127,0.064c0.071,0.047,0.133,0.099,0.192,0.152c0.111,0.106,0.224,0.227,0.312,0.341
		c0.187,0.229,0.356,0.451,0.577,0.594c0.211,0.166,0.48,0.167,0.722,0.135c0.246-0.046,0.469-0.14,0.675-0.226
		c0.405-0.196,0.724-0.39,0.956-0.514c0.032-0.018,0.061-0.026,0.091-0.039c0.01-0.004,0.021-0.01,0.032-0.013
		c0.013-0.004,0.027-0.014,0.039-0.017c0.005,0.002,0.004,0.005,0.008,0.007c0.004,0.003,0.008,0.006,0.009,0.009
		c0.003,0.006-0.006,0.016-0.012,0.025c-0.001,0.001-0.001,0.003-0.002,0.004c-0.014,0.019-0.032,0.037-0.036,0.047
		c-0.039,0.036-0.049,0.046-0.059,0.055c-0.003,0.003-0.019,0.019-0.019,0.019c0.005-0.005,0.007-0.007,0.012-0.012
		c-0.001,0.001-0.013,0.012-0.013,0.012s-0.109,0.102-0.301,0.281c-0.193,0.178-0.488,0.413-0.897,0.615
		c-0.214,0.1-0.432,0.192-0.714,0.194c-0.276-0.025-0.533-0.146-0.785-0.281c-0.252-0.138-0.497-0.306-0.723-0.51
		c-0.112-0.104-0.224-0.208-0.321-0.337c-0.049-0.064-0.097-0.131-0.132-0.218C26.764,21.91,26.781,21.659,26.826,21.643z"/>
	<path d="M36.789,30.78c-0.028-0.044-0.057-0.111-0.096-0.18c0.057,0.094,0.113,0.207,0.176,0.355
		C36.869,30.955,36.842,30.896,36.789,30.78z"/>
	<polygon points="30.8,22.052 30.794,22.055 30.8,22.054 	"/>
	<path d="M30.772,22.13c-0.019,0.021-0.041,0.044-0.07,0.072c0-0.001,0.005-0.005,0.007-0.007c0.009-0.009,0.02-0.02,0.058-0.057
		C30.766,22.136,30.77,22.132,30.772,22.13z"/>
	<path d="M30.065,19.013c0.178-0.065,0.271-0.108,0.308-0.126c0.006-0.003,0.021-0.01,0.023-0.011
		c-0.148,0.077-0.296,0.125-0.443,0.169C29.991,19.034,30.032,19.024,30.065,19.013z"/>
	<path d="M17.929,38.428c-0.137,0.053-0.269,0.096-0.391,0.12c-0.033,0.017-0.062,0.019-0.09,0.015c0.001,0,0.005,0.002,0.006,0.002
		C17.549,38.564,17.721,38.512,17.929,38.428z"/>
	<path d="M26.292,49.729c-0.049-0.07-0.079-0.166-0.1-0.237c-0.005-0.072-0.015-0.117-0.017-0.212
		c0.005-0.078-0.001-0.148,0.001-0.186c-0.081,0.045-0.17,0.12-0.249,0.184c-0.075,0.078-0.152,0.149-0.203,0.231
		c-0.157,0.259-0.128,0.486-0.109,0.581c0.005,0.014,0.004,0.031,0.009,0.047v-0.001c0.023,0.06,0.048,0.106,0.073,0.148
		c0.018,0.03,0.037,0.059,0.055,0.087c0.038,0.056,0.09,0.115,0.158,0.148c0.007,0.004,0.013,0.008,0.02,0.01
		c0.037,0.014,0.078,0.019,0.125,0.008c0.088-0.016,0.172-0.088,0.244-0.163c0.074-0.065,0.15-0.183,0.216-0.272
		c0.049-0.055,0.094-0.166,0.113-0.207C26.555,49.891,26.342,49.843,26.292,49.729z"/>
	<path d="M16.901,38.064c0,0,0.053,0.056,0.152,0.158c0.051,0.049,0.115,0.11,0.189,0.182c0.077,0.043,0.165,0.205,0.297,0.131
		c0.26-0.059,0.556-0.184,0.887-0.354c0.323-0.179,0.706-0.352,1.049-0.656c0.187-0.117,0.33-0.354,0.594-0.403
		c0.238-0.079,0.514-0.091,0.77-0.076c0.53,0.04,1.059,0.054,1.609-0.101c0.54-0.146,1.084-0.37,1.566-0.698
		c0.237-0.165,0.465-0.356,0.623-0.587c0.077-0.131,0.133-0.207,0.151-0.364c0.025-0.075,0.002-0.235-0.003-0.3
		c-0.016,0.007-0.034,0.014-0.055,0.029l-0.168,0.136l-0.332,0.305c-0.221,0.2-0.456,0.423-0.716,0.581
		c-0.511,0.342-1.089,0.57-1.675,0.629c-0.293,0.023-0.585,0.012-0.871-0.057c-0.134-0.045-0.248-0.098-0.386-0.152
		c-0.114-0.058-0.23-0.113-0.349-0.117c-0.492,0.012-0.885,0.412-1.251,0.656c-0.273,0.195-0.536,0.357-0.8,0.48
		c-0.071,0.035-0.143,0.072-0.211,0.097c-0.025,0.008-0.05,0.026-0.075,0.034c-0.358,0.132-0.693,0.059-0.952,0.029
		c-0.119-0.002-0.281-0.056-0.319,0.035c0.017,0.096,0.093,0.161,0.132,0.219C16.851,38.008,16.901,38.064,16.901,38.064z"/>
	<path d="M17.735,38.779l-0.064,0.014c-0.008,0.002-0.008,0.016-0.015,0.018C17.681,38.798,17.708,38.788,17.735,38.779z"/>
	<path d="M19.834,42.506c-0.529-0.717-0.89-1.205-1.044-1.415c-0.032-0.043-0.04-0.052-0.054-0.071
		C19.102,41.55,19.467,42.04,19.834,42.506z"/>
	<path d="M50.574,37.04c0.005,0.005,0.007,0.015,0.01,0.021c-0.002-0.006,0.002-0.012-0.001-0.018
		C50.58,37.04,50.576,37.041,50.574,37.04z"/>
	<path d="M39.436,32.919c0.071-0.073,0.028-0.163-0.023-0.213c-0.092-0.046-0.184-0.067-0.286-0.081
		c-0.802-0.144-1.799-0.279-2.458-1.074c-0.168-0.192-0.184-0.484-0.346-0.608c-0.168-0.128-0.438-0.107-0.678-0.104
		c-0.496,0.028-1.012,0.113-1.545,0.101c-0.527,0.008-1.093-0.115-1.559-0.429c-0.465-0.31-0.804-0.807-1.045-1.287
		c-0.132-0.244-0.236-0.517-0.407-0.668c-0.158-0.139-0.437-0.055-0.7,0.011c-0.261,0.078-0.555,0.119-0.833,0.179
		c-0.286,0.005-0.578,0.049-0.863-0.004c-0.582-0.053-1.117-0.316-1.594-0.628c-0.446-0.349-0.856-0.778-1.136-1.253l-0.412-0.691
		c-0.021,0.047-0.041,0.099-0.057,0.159c-0.031,0.122-0.088,0.264-0.089,0.384c-0.068,0.497,0.105,1.025,0.353,1.467
		c0.251,0.444,0.577,0.851,0.962,1.136l0.329,0.18c0.097,0.049,0.231,0.054,0.344,0.083c0.238,0.036,0.463,0.118,0.705,0.118
		c0.484,0.011,0.94,0.049,1.396,0.021c0.45-0.027,0.93,0.091,1.235,0.401c0.615,0.574,1.012,1.28,1.643,1.555
		c0.633,0.237,1.245,0.22,1.728,0.28c0.361,0.034,0.643,0.077,0.879,0.121c0.053,0.01,0.109,0.019,0.154,0.029
		c0.026,0.006,0.064,0.011,0.088,0.016c0.014,0.002,0.016,0.006,0.027,0.009c0.207,0.049,0.334,0.099,0.334,0.144
		c0,0.049,0.057,0.164,0.139,0.304c-0.031-0.054-0.044-0.087-0.063-0.129c0.026,0.055,0.048,0.106,0.098,0.185
		c0.146,0.215,0.351,0.549,0.716,0.871c0.377,0.297,0.99,0.518,1.651,0.35c0.33-0.076,0.649-0.24,0.924-0.511
		C39.182,33.223,39.329,33.066,39.436,32.919z"/>
	<path d="M37.615,31.865c0.072,0.05,0.145,0.099,0.213,0.126c0.055,0.022,0.104,0.035,0.156,0.055
		C37.842,32.001,37.719,31.938,37.615,31.865z"/>
	<path d="M36.123,33.16c0.01,0.012,0.018,0.025,0.027,0.037c0.004,0.005,0.009,0.008,0.013,0.013
		C36.148,33.193,36.137,33.177,36.123,33.16z"/>
	<path d="M35.025,43.598c0.135-0.182,0.192-0.445,0.238-0.728c0.022-0.228,0.035-0.481,0.063-0.746
		c0.01-0.172,0.03-0.358,0.063-0.562c0.026-0.252,0.059-0.513,0.147-0.777c0.11-0.393,0.208-0.814,0.346-1.25
		c0.158-0.424,0.324-0.875,0.498-1.346c0.39-0.92,0.849-1.904,1.375-2.922c0.13-0.257,0.261-0.516,0.394-0.777
		c0.035-0.076,0.076-0.135,0.053-0.122c-0.038-0.027-0.107-0.054-0.176-0.066c-0.139-0.028-0.279-0.04-0.432-0.041
		c-0.613-0.01-1.256-0.241-1.687-0.753l-0.265-0.389c-0.086-0.115-0.183-0.32-0.236-0.319c-0.049-0.008-0.174,0.165-0.24,0.285
		c-0.079,0.134-0.15,0.276-0.223,0.419c-0.293,0.57-0.525,1.18-0.758,1.786c-0.472,1.215-0.787,2.517-1,3.813
		c-0.152,0.642-0.135,1.322-0.209,1.979c-0.023,0.315-0.002,0.651,0.037,0.968c0.021,0.16,0.053,0.318,0.1,0.465
		c0.037,0.147,0.154,0.291,0.137,0.228c0.143-0.193,0.184-0.575,0.268-0.874c0.074-0.317,0.149-0.633,0.224-0.947
		c0.144-0.629,0.29-1.248,0.491-1.844c0.192-0.598,0.342-1.196,0.613-1.746c0.123-0.277,0.242-0.555,0.361-0.826
		c0.141-0.259,0.316-0.49,0.471-0.732c0.153-0.238,0.311-0.483,0.522-0.681c0.036-0.006,0.026-0.094,0.161-0.036
		c0.031,0.088-0.002,0.108-0.006,0.146c-0.023,0.069-0.049,0.134-0.076,0.196l-0.17,0.373c-0.236,0.485-0.465,0.955-0.685,1.403
		c-0.884,1.793-1.284,3.435-1.435,4.587c-0.072,0.578-0.069,1.041-0.008,1.348c0.029,0.147,0.07,0.252,0.105,0.324
		c0.021,0.041,0.044,0.084,0.072,0.115c0.005-0.009,0.025,0.018,0.056,0.051c0.026,0.027,0.052,0.049,0.078,0.071
		c0.002,0.002,0.004,0.003,0.005,0.005l0.001,0.001c0.04,0.037,0.103,0.073,0.173,0.106c0.025,0.012,0.045,0.023,0.075,0.035
		C34.695,43.866,34.915,43.805,35.025,43.598z"/>
	<path d="M21.372,44.221c0.278,0.336,0.665,0.598,1.022,0.928c0.184,0.158,0.373,0.32,0.566,0.486
		c0.197,0.162,0.432,0.285,0.653,0.434c0.456,0.285,0.907,0.604,1.429,0.853c0.257,0.13,0.516,0.267,0.786,0.388
		c0.133,0.063,0.273,0.115,0.41,0.159c0.153,0.025,0.261,0.072,0.26-0.112c-0.074-0.187-0.402-0.401-0.634-0.568
		c-0.255-0.18-0.536-0.323-0.798-0.521c-0.535-0.375-1.022-0.82-1.518-1.27c-0.984-0.912-1.966-1.883-2.897-2.95
		c-0.231-0.272-0.467-0.545-0.656-0.841c-0.104-0.139-0.204-0.314-0.256-0.504c-0.011-0.053-0.023-0.109-0.007-0.188
		c0.024-0.121,0.195-0.158,0.246-0.125c0.125,0.043,0.196,0.107,0.268,0.172c0.285,0.267,0.439,0.598,0.649,0.873
		c0.205,0.287,0.426,0.563,0.653,0.836c0.906,1.09,1.915,2.101,2.975,3.01c0.534,0.435,1.082,0.91,1.686,1.146
		c0.072,0.027,0.152,0.028,0.181,0.016c-0.006,0.015,0.022-0.01,0.036-0.061c-0.018,0.008-0.018-0.04-0.022-0.061
		c-0.063-0.143-0.153-0.283-0.245-0.422c-0.196-0.271-0.402-0.535-0.621-0.787C24.634,44.143,23.794,43.137,23,42.2
		c-0.659-1.034-1.335-1.976-1.836-2.929c-0.263-0.465-0.48-0.937-0.819-1.283c-0.045-0.066-0.089-0.114-0.134-0.149
		c-0.004-0.003-0.008-0.005-0.012-0.008c-0.319-0.231-0.64,0.274-0.973,0.39c-0.237,0.164-0.486,0.264-0.729,0.35
		c-0.041,0.016-0.078,0.029-0.118,0.043c-0.091,0.031-0.181,0.062-0.268,0.096c-0.168,0.061-0.37,0.057-0.49,0.141
		c-0.005,0.006-0.011,0.01-0.015,0.018c-0.058,0.146,0.007,0.314,0.052,0.451c0.247,0.572,0.584,0.945,0.754,1.23
		c0.188,0.277,0.288,0.424,0.288,0.424s0.025,0.033,0.036,0.047c-0.011-0.016-0.022-0.03-0.034-0.047c0,0,0.032,0.043,0.087,0.118
		c0.161,0.213,0.537,0.712,1.092,1.447C20.242,43.049,20.799,43.57,21.372,44.221z"/>
	<path d="M19.306,47.979c-0.04,0.025-0.073,0.047-0.085,0.054c-0.001,0.001,0,0.004,0,0.004
		C19.243,48.02,19.28,47.997,19.306,47.979z"/>
	<path d="M43.102,19.11c0.141,0.949,0.096,1.877-0.031,2.695c-0.049,0.417-0.178,0.806-0.162,1.177
		c-0.008,0.195,0.141,0.315,0.312,0.363c0.174,0.042,0.338,0.112,0.497,0.177c0.606,0.326,0.991,0.809,1.259,1.21
		c0.021,0.031,0.03,0.056,0.049,0.087c0.095,0.146,0.181,0.297,0.257,0.45c0.043,0.089,0.067,0.157,0.1,0.234
		c0.03,0.073,0.063,0.145,0.089,0.217c0.002,0.006,0.006,0.016,0.008,0.022c0.067,0.252,0.103,0.387,0.103,0.387
		c0.009,0.047,0.017,0.085,0.026,0.127c0.014,0.065,0.033,0.148,0.062,0.262c0.038,0.112,0.064,0.316,0.242,0.381
		c0.188,0.016,0.378-0.128,0.574-0.259c0.383-0.295,0.787-0.741,1.127-1.324c0.166-0.282,0.332-0.641,0.158-0.996
		c-0.115-0.359-0.338-0.691-0.545-1.056c-0.429-0.736-0.531-1.693-0.408-2.645c0.109-0.967,0.49-1.921,0.865-2.886
		c0.166-0.488,0.34-0.997,0.349-1.51c0.021-0.264-0.075-0.494-0.218-0.686c-0.184-0.219-0.389-0.321-0.621-0.321
		c-0.232,0.007-0.42,0.215-0.557,0.427c-0.14,0.223-0.232,0.462-0.305,0.73l-0.205,0.811c-0.043,0.137-0.086,0.273-0.154,0.41
		c-0.037,0.069-0.068,0.136-0.147,0.208c-0.026,0.031-0.109,0.078-0.187,0.067c-0.101-0.017-0.132-0.068-0.171-0.113
		c-0.254-0.623-0.108-1.163-0.196-1.702c-0.067-0.519-0.138-1.13-0.625-1.325c-0.465-0.193-1.049-0.114-1.461,0.14
		c-0.225,0.154-0.381,0.338-0.517,0.553c-0.026,0.118-0.088,0.225-0.09,0.348l0.014,0.374C42.754,17.165,43.023,18.153,43.102,19.11
		z"/>
	<path d="M48.131,43.766c-0.201-0.012-0.404-0.006-0.604-0.002c-0.207-0.016-0.354,0.037-0.53,0.122
		c-0.334,0.161-0.63,0.364-0.896,0.556c-0.531,0.388-0.932,0.767-1.186,1.054c-0.046,0.053-0.082,0.099-0.119,0.146
		c-0.016,0.021-0.035,0.045-0.05,0.064c-0.028,0.039-0.047,0.072-0.065,0.105c-0.041,0.073-0.076,0.144-0.076,0.191
		c0,0.018,0.008,0.029,0.011,0.045c0.006,0.026,0.017,0.061,0.042,0.098c0.07,0.092,0.24,0.064,0.42,0.02
		c0.367-0.114,0.848-0.387,1.388-0.762c0.271-0.187,0.565-0.391,0.903-0.57c0.085-0.045,0.173-0.087,0.27-0.122
		c0.051-0.015,0.098-0.035,0.166-0.033c0.024-0.005,0.082,0.011,0.114,0.042c0.039,0.049,0.038,0.094,0.032,0.129
		c-0.066,0.239-0.217,0.379-0.328,0.545c-0.061,0.073-0.098,0.187-0.072,0.139c0.036,0.021,0.162,0.031,0.254,0.031
		c0.211,0.011,0.418-0.008,0.623-0.023c0.402-0.059,0.829-0.21,1.049-0.527c0.199-0.285,0.137-0.812-0.183-0.998
		C48.977,43.8,48.525,43.785,48.131,43.766z"/>
	<path d="M20.112,47.066c0.17-0.146,0.243-0.371,0.271-0.613c0.029-0.262,0.024-0.499-0.011-0.758
		c-0.049-0.25-0.121-0.506-0.261-0.713c-0.067-0.104-0.151-0.189-0.216-0.238c-0.015-0.018-0.08-0.03-0.117-0.038
		c-0.009,0.019-0.022,0.042-0.019,0.067c-0.041,0.24,0.004,0.494,0.006,0.763c0.003,0.133,0.018,0.263-0.032,0.396
		c-0.019,0.135-0.093,0.245-0.188,0.34c-0.171,0.176-0.387,0.26-0.562,0.359c-0.315,0.17-0.556,0.369-0.68,0.562
		c-0.026,0.041-0.049,0.082-0.063,0.121c-0.012,0.033-0.025,0.066-0.028,0.095c-0.009,0.077-0.005,0.151,0.036,0.216
		c0.013,0.021,0.056,0.032,0.102,0.04c0.062,0.012,0.149,0.008,0.26-0.005c0.235-0.033,0.569-0.114,0.945-0.273
		C19.742,47.309,19.946,47.212,20.112,47.066z"/>
	<path d="M39.414,48.344c-0.117-0.162-0.327-0.279-0.314-0.508c0.096-0.213,0.221-0.361,0.338-0.525
		c0.233-0.326,0.492-0.643,0.748-0.971c0.526-0.642,1.069-1.305,1.623-1.979c0.537-0.678,1.103-1.372,1.528-2.122
		c0.106-0.183,0.196-0.388,0.202-0.556c0.014-0.158-0.152-0.238-0.357-0.258c-0.423-0.027-0.847,0.032-1.205,0.244
		c-0.355,0.201-0.645,0.5-0.865,0.874c-0.127,0.177-0.217,0.345-0.317,0.54c-0.045,0.087-0.095,0.175-0.108,0.242
		c0.026-0.01,0.074-0.039,0.098-0.053l0.521-0.332l0.266-0.156l0.136-0.073l0.071-0.034c0.02-0.001,0.134-0.066,0.16,0.053
		c-0.287,0.395-0.547,0.607-0.812,0.905c-0.531,0.546-1.032,1.062-1.495,1.538c-0.465,0.475-0.892,0.908-1.271,1.292
		c-0.385,0.377-0.702,0.728-0.864,1.081c-0.171,0.346-0.192,0.67-0.11,0.859c0.03,0.078,0.068,0.126,0.104,0.162
		c0.016,0.018,0.031,0.035,0.051,0.05c0.025,0.019,0.043,0.03,0.037,0.034c0.001,0.002,0.002,0.002,0.004,0.002
		c0.01,0.007,0.38,0.24,1.027,0.646c0.33,0.201,0.729,0.454,1.213,0.685c0.242,0.115,0.51,0.229,0.802,0.269
		c0.147,0.011,0.292,0.013,0.42-0.086c0.169-0.062-0.001-0.222-0.082-0.347C40.555,49.303,39.947,48.896,39.414,48.344z"/>
	<path d="M21.468,47.854c0.047-0.233,0.056-0.481,0.05-0.732c-0.021-0.247-0.061-0.512-0.151-0.725
		c-0.034-0.203-0.275-0.44-0.401-0.496c-0.007,0.037-0.039,0.129-0.036,0.207c-0.007,0.127-0.015,0.252-0.044,0.386
		c-0.011,0.134-0.056,0.256-0.123,0.366c-0.047,0.119-0.129,0.213-0.214,0.299c-0.152,0.193-0.35,0.273-0.515,0.395
		c-0.341,0.201-0.633,0.37-0.814,0.5c-0.001,0.002,0,0.006-0.001,0.008c-0.013,0.047-0.009,0.094,0.003,0.135
		c0.016,0.06,0.041,0.125,0.084,0.193c0.004-0.006,0.022,0.019,0.055,0.051c0.007,0.006,0.014,0.014,0.022,0.02
		c0.046,0.04,0.117,0.088,0.227,0.118c0.218,0.063,0.555,0.11,0.945,0.042c0.195-0.043,0.397-0.092,0.579-0.21
		C21.353,48.289,21.392,48.083,21.468,47.854z"/>
	<path d="M41.773,49.501c0.027,0,0.05-0.008,0.076-0.009c-0.041,0-0.086,0.003-0.125-0.001
		C41.738,49.492,41.759,49.501,41.773,49.501z"/>
	<path d="M47.96,43.227c0.022,0.006,0.039,0.014,0.063,0.019c0.002,0,0.004,0.001,0.006,0.001
		C48.003,43.241,47.984,43.232,47.96,43.227z"/>
	<path d="M34.329,46.459c0.108-0.4,0.121-0.832,0.039-1.242c-0.156-0.82-0.606-1.594-1.286-2.009
		c-0.698-0.388-1.525-0.543-2.248-0.415c-0.731,0.141-1.347,0.535-1.872,0.921c-0.535,0.382-0.965,0.812-1.286,1.237
		c-0.334,0.419-0.512,0.857-0.654,1.211c-0.116,0.365-0.193,0.658-0.221,0.863c-0.037,0.203-0.056,0.311-0.056,0.311
		s-0.012,0.109-0.033,0.314c0.007,0.195-0.096,0.531,0.079,0.865c0.114,0.109,0.279,0.053,0.371-0.078
		c0.002-0.004,0.003-0.006,0.005-0.008c0.029-0.045,0.05-0.096,0.059-0.152c0.067-0.219,0.079-0.469,0.086-0.736
		c0.034-0.268,0.05-0.555,0.106-0.852c0.106-0.282,0.157-0.606,0.322-0.896c0.282-0.603,0.732-1.187,1.327-1.669
		c0.602-0.452,1.403-0.809,2.226-0.814c0.229,0.02,0.428,0.026,0.644,0.061c0.204,0.076,0.435,0.097,0.612,0.245l0.282,0.186
		l0.229,0.226c0.156,0.142,0.31,0.318,0.442,0.488c0.308,0.317,0.485,0.78,0.528,1.245c0.002,0.435-0.036,0.898-0.045,1.312
		c0,0.022,0.003,0.04,0.003,0.064c0.033-0.039,0.067-0.083,0.083-0.118C34.152,46.83,34.295,46.667,34.329,46.459z"/>
	<polygon points="33.989,47.139 33.989,47.138 33.988,47.139 	"/>
	<path d="M38.971,49.973c-0.33-0.259-0.705-0.488-1.099-0.744c-0.39-0.25-0.794-0.513-1.213-0.783l-0.158-0.102
		c-0.033-0.045-0.149-0.027-0.121-0.186c0.058-0.135,0.138-0.229,0.216-0.335c0.158-0.206,0.328-0.405,0.508-0.603
		c0.727-0.775,1.461-1.611,2.123-2.558c0.328-0.474,0.65-0.963,0.933-1.481c0.271-0.515,0.557-1.061,0.509-1.643
		c-0.011-0.146-0.046-0.268-0.134-0.322c-0.089-0.061-0.246-0.066-0.386-0.078c-0.316-0.018-0.582,0.026-0.875,0.105
		c-0.573,0.173-1.119,0.459-1.642,0.771c-0.524,0.311-1.026,0.664-1.493,1.053c-0.451,0.39-0.928,0.818-1.176,1.32
		c-0.133,0.236-0.113,0.562-0.051,0.818c0.048,0.285,0.355,0.104,0.58-0.064c0.468-0.35,0.855-0.791,1.289-1.185
		c0.43-0.394,0.828-0.813,1.283-1.133l0.33-0.253c0.006-0.008,0.033-0.026,0.056-0.034c0.008-0.002,0.049-0.037,0.12,0.009
		c0.037,0.08,0.002,0.105,0,0.119c-0.01,0.023-0.021,0.035-0.03,0.052c-0.041,0.062-0.084,0.115-0.128,0.169
		c-0.176,0.213-0.36,0.408-0.543,0.602c-0.732,0.771-1.477,1.441-2.081,2.141c-0.603,0.691-1.147,1.364-1.399,2.068
		c-0.154,0.338-0.119,0.73,0.082,0.975c0.211,0.241,0.473,0.401,0.676,0.575c0.438,0.315,0.787,0.558,1.031,0.711
		c0.242,0.158,0.371,0.243,0.371,0.243c0.165,0.102,0.322,0.195,0.479,0.285c0.246,0.142,0.574,0.32,1.007,0.533
		c0.243,0.114,0.516,0.239,0.825,0.332c0.152,0.041,0.33,0.099,0.481,0.041c0.079-0.106,0.109-0.326,0.168-0.492
		C39.701,50.52,39.264,50.223,38.971,49.973z"/>
	<path d="M22.716,47.242c-0.085-0.11-0.165-0.195-0.266-0.294c-0.095-0.091-0.187-0.214-0.255-0.212
		c-0.066-0.01-0.123,0.096-0.133,0.216c-0.033,0.241-0.053,0.471-0.106,0.682c-0.01,0.067-0.041,0.111-0.057,0.173
		c-0.018,0.07-0.043,0.135-0.067,0.199c-0.03,0.074-0.05,0.154-0.085,0.217c-0.028,0.053-0.066,0.098-0.099,0.146
		c-0.044,0.063-0.089,0.14-0.129,0.188c-0.193,0.155-0.303,0.244-0.303,0.244s-0.032,0.022-0.087,0.064
		c-0.053,0.039-0.127,0.099-0.218,0.178c-0.094,0.082-0.198,0.189-0.295,0.326c-0.141,0.175,0.042,0.337,0.255,0.346
		c0.412,0.051,0.915-0.045,1.385-0.248c0.237-0.097,0.446-0.265,0.612-0.451c0.156-0.203,0.254-0.449,0.259-0.709
		c0.006-0.252-0.053-0.522-0.185-0.742C22.887,47.453,22.814,47.344,22.716,47.242z"/>
	<polygon points="26.95,48.589 26.952,48.589 26.954,48.588 	"/>
	<path d="M31.644,47.199c0.011-0.215-0.044-0.436-0.142-0.615c-0.134-0.227-0.284-0.316-0.5-0.412
		c-0.209-0.082-0.442-0.105-0.667-0.091c-0.229,0.047-0.417,0.063-0.609,0.226c-0.157,0.125-0.268,0.317-0.338,0.506
		c-0.054,0.197-0.079,0.393-0.068,0.576c0.017,0.178,0.045,0.35,0.116,0.48c0.049,0.143,0.136,0.238,0.204,0.322
		c0.062,0.088,0.154,0.113,0.196,0.15c0.049,0.031,0.074,0.049,0.074,0.049c0.121,0.047,0.24,0.06,0.358,0.068
		c0.1,0.008,0.221,0.003,0.353-0.027c0.001,0,0.001,0,0.002,0c0.144-0.035,0.299-0.1,0.447-0.209
		C31.361,48.016,31.622,47.633,31.644,47.199z M30.719,47.557c-0.118,0.086-0.293,0.117-0.487,0.077
		c-0.111-0.022-0.187-0.071-0.254-0.123c-0.102-0.089-0.159-0.194-0.159-0.331c0.042-0.259,0.243-0.398,0.427-0.443
		c0.186-0.053,0.351-0.021,0.483,0.054c0.093,0.067,0.142,0.146,0.168,0.215c0.003,0.009,0.009,0.017,0.011,0.024
		c0.002,0.009,0.01,0.02,0.011,0.027c0.011,0.076,0.017,0.12,0.017,0.12C30.923,47.161,30.977,47.396,30.719,47.557z"/>
	<path d="M32.719,44.254c-0.385-0.314-0.887-0.402-1.366-0.427c-0.971-0.062-1.833,0.413-2.407,1.021
		c-0.571,0.609-0.975,1.309-1.119,1.979c-0.179,0.664-0.134,1.282-0.249,1.767c-0.018,0.096-0.042,0.167-0.063,0.254
		c-0.017,0.073-0.034,0.147-0.053,0.215c-0.038,0.138-0.072,0.256-0.111,0.367c-0.027,0.077-0.055,0.162-0.08,0.225
		c-0.005,0.013-0.011,0.033-0.016,0.045c-0.105,0.244-0.161,0.374-0.161,0.374s-0.058,0.13-0.166,0.372
		c-0.086,0.246-0.251,0.619-0.214,1.117c0.036,0.24,0.146,0.515,0.41,0.656c0.264,0.124,0.597,0.193,0.927,0.225
		c0.09-0.002,0.132-0.051,0.125-0.153c-0.01-0.076-0.046-0.159-0.09-0.237C28,51.9,27.844,51.779,27.759,51.589
		c-0.135-0.366-0.164-0.827,0.082-1.202c0.495-0.734,1.391-1.15,2.32-1.431l0.268-0.074c-0.195-0.024-0.391-0.056-0.586-0.114
		c-0.244-0.066-0.526-0.203-0.666-0.444c-0.169-0.207-0.295-0.459-0.362-0.733c-0.05-0.281-0.005-0.568,0.079-0.832
		c0.098-0.264,0.167-0.512,0.372-0.763c0.439-0.425,1.068-0.49,1.634-0.431c0.277,0.021,0.617,0.149,0.818,0.317
		c0.245,0.224,0.377,0.494,0.438,0.8c0.133,0.578-0.057,1.254-0.518,1.649c-0.216,0.204-0.46,0.376-0.73,0.505l-0.047,0.021
		c0.067,0,0.139-0.002,0.203-0.002c0.284-0.01,0.574,0,0.823-0.051c0.26-0.047,0.494-0.187,0.7-0.35
		c0.823-0.697,1.099-1.908,0.863-2.896C33.318,45.053,33.104,44.566,32.719,44.254z"/>
	<path d="M34.383,48.607c0.006,0.011,0.023,0.027,0.034,0.041c-0.021-0.027-0.035-0.058-0.051-0.088
		C34.374,48.575,34.374,48.593,34.383,48.607z"/>
	<path d="M36.173,49.962c0.244,0.155,0.374,0.238,0.374,0.238c-0.18-0.112-0.355-0.226-0.527-0.339
		C36.068,49.893,36.131,49.936,36.173,49.962z"/>
	<path d="M30.936,47.177c0,0.076-0.036,0.134-0.07,0.189C30.93,47.268,30.928,47.165,30.936,47.177z"/>
	<path d="M31.688,38.077c-0.065,0.668-0.098,1.351-0.082,2.04c0.036,0.668,0.049,1.431,0.355,1.988
		c0.019,0.023,0.035,0.047,0.05,0.074c0.032,0.022,0.077,0.041,0.115,0.062c0.029,0.007,0.138,0.013,0.176-0.002
		c0.078-0.037,0.124-0.222,0.136-0.388c0.041-0.34,0.014-0.701,0.044-1.059c0.075-0.717,0.073-1.45,0.213-2.16
		c0.172-0.703,0.291-1.419,0.505-2.107c0.239-0.68,0.479-1.357,0.716-2.029c0.307-0.639,0.609-1.271,0.909-1.896l0.034-0.072
		c-0.006-0.002-0.01-0.006-0.016-0.004c-0.07-0.028-0.154-0.048-0.234-0.067c-0.164-0.037-0.332-0.064-0.5-0.088
		c-0.34-0.04-0.678-0.079-1.012-0.118c-0.168-0.023-0.336-0.035-0.502-0.068l-0.494-0.144c-0.309-0.149-0.596-0.36-0.794-0.609
		c-0.226-0.233-0.423-0.495-0.65-0.705c-0.102-0.102-0.258-0.219-0.33-0.262c-0.001-0.014-0.025-0.007-0.043-0.003
		c0.029-0.024-0.007,0.02-0.008,0.027l-0.054,0.091c-0.042,0.055-0.062,0.131-0.084,0.203c-0.326,1.174-0.355,2.365-0.423,3.432
		c-0.093,2.153-0.031,3.953,0.076,5.205c0.052,0.627,0.128,1.115,0.187,1.447c0.077,0.323,0.118,0.495,0.12,0.501
		c0,0,0,0.001,0,0.002c0.035,0.113,0.079,0.218,0.123,0.32c0.021,0.047,0.042,0.094,0.07,0.149c0.008,0.017,0.017,0.028,0.025,0.044
		c0.076,0.141,0.17,0.316,0.351,0.448c0.092,0.079,0.255,0.069,0.334-0.05c0.068-0.12,0.101-0.266,0.123-0.42
		c0.081-0.623,0.053-1.389,0.068-2.266c0.027-0.877,0.117-1.863,0.272-2.933c0.08-0.534,0.175-1.089,0.305-1.658
		c0.066-0.284,0.138-0.571,0.247-0.858c0.026-0.07,0.054-0.143,0.098-0.218c0.022-0.034,0.037-0.079,0.065-0.104l0.039-0.042
		c0.012,0.002,0.008-0.057,0.112-0.037c0.102,0.234,0.02,0.34,0.021,0.509C32.175,35.486,31.789,36.734,31.688,38.077z"/>
	<path d="M48.924,43.413c-0.32-0.063-0.609-0.106-0.857-0.159c0.322,0.066,0.662,0.13,0.884,0.167
		C48.941,43.417,48.934,43.418,48.924,43.413z"/>
	<path d="M49.115,43.445c0.007,0.002,0.021,0.004,0.027,0.005s0.012-0.007,0.018-0.005C49.146,43.447,49.13,43.445,49.115,43.445z"
		/>
	<path d="M22.036,40.134c-0.223-0.362-0.445-0.735-0.67-1.134C21.366,39,21.614,39.42,22.036,40.134z"/>
	<path d="M26.9,40.273c0.016,0.035,0.029,0.067,0.046,0.104c0.014,0.035,0.034,0.074,0.049,0.11
		C26.964,40.418,26.932,40.346,26.9,40.273z"/>
	<path d="M12.899,32.241c0.807,1.123,1.652,2.341,2.093,3.022c0,0,0.099,0.144,0.284,0.414c0.061,0.09,0.15,0.211,0.234,0.324
		c-0.077-0.104-0.151-0.217-0.228-0.326c0.187,0.268,0.471,0.659,0.89,1.1c0.198,0.232,0.481,0.432,0.83,0.547
		c0.346,0.152,0.759,0.053,1.111-0.186c0.361-0.222,0.718-0.503,1.113-0.772c0.201-0.13,0.407-0.273,0.658-0.343
		c0.252-0.073,0.523-0.033,0.778,0.03c0.502,0.146,1.038,0.267,1.589,0.146c0.547-0.104,1.065-0.408,1.492-0.809
		c0.414-0.421,0.886-0.863,0.974-1.484c0.109-0.608,0.107-1.258,0.116-1.909c-0.004-1.31-0.009-2.663-0.013-4.039
		c-0.004-0.677-0.038-1.384-0.263-2.007c-0.007-0.293-0.482-0.319-0.779-0.43c-0.325-0.089-0.663-0.15-0.997-0.13
		c-0.673,0.001-1.323,0.286-1.775,0.784c-0.252,0.244-0.411,0.54-0.731,0.774c-0.164,0.123-0.397,0.138-0.577,0.095
		c-0.188-0.038-0.341-0.115-0.505-0.161c-1.262-0.489-2.754-0.234-3.602,0.793c-0.212,0.244-0.424,0.46-0.449,0.788
		c-0.012,0.084-0.031,0.189-0.129,0.261c-0.101,0.064-0.209,0.041-0.291,0.016c-0.162-0.061-0.302-0.15-0.433-0.241
		c-0.489-0.393-1.097-0.536-1.689-0.532c-0.588,0.028-1.162,0.178-1.672,0.396c-0.125,0.058-0.249,0.122-0.351,0.205
		c-0.05,0.053-0.087,0.062-0.1,0.143l0.089,0.155c0.129,0.222,0.29,0.449,0.43,0.666c0.603,0.857,1.156,1.643,1.646,2.339
		C12.734,32.003,12.812,32.115,12.899,32.241z M23.545,32.706c0.139-0.179,0.242-0.392,0.392-0.542
		c0.039-0.02,0.075-0.115,0.163-0.043c0.018,0.047-0.006,0.107-0.015,0.15c-0.015,0.099-0.069,0.172-0.103,0.25
		c-0.073,0.151-0.162,0.269-0.223,0.373c-0.144,0.193-0.226,0.304-0.226,0.304s-0.096,0.099-0.264,0.271
		c-0.19,0.147-0.485,0.34-0.895,0.432c-0.201,0.062-0.429,0.076-0.672,0.074c-0.237-0.019-0.511-0.082-0.744-0.233
		c-0.088-0.075-0.226-0.164-0.306-0.272c-0.045-0.056-0.086-0.097-0.132-0.189c-0.004-0.012-0.052-0.106,0.052-0.18
		c0.075-0.031,0.099-0.014,0.122-0.014c0.048,0.01,0.081,0.02,0.116,0.032c0.268,0.106,0.51,0.211,0.756,0.282
		c0.252,0.057,0.512,0.089,0.764,0.047c0.248-0.043,0.497-0.114,0.699-0.254C23.244,33.068,23.408,32.906,23.545,32.706z
		 M23.303,30.65c-0.017,0.394-0.238,0.642-0.345,0.825c-0.142,0.163-0.223,0.256-0.223,0.256s-0.026,0.021-0.073,0.058
		c-0.036,0.031-0.083,0.071-0.148,0.118c-0.036,0.026-0.087,0.055-0.133,0.082c-0.127,0.077-0.276,0.156-0.478,0.215
		c-0.009,0.003-0.019,0.005-0.029,0.008c-0.078,0.021-0.142,0.051-0.231,0.064c-0.186,0.026-0.394,0.025-0.61-0.03
		c-0.108-0.022-0.214-0.089-0.325-0.137c-0.089-0.078-0.171-0.125-0.267-0.235c-0.06-0.107-0.198-0.162-0.149-0.415
		c0.102-0.136,0.202-0.106,0.266-0.1c0.079,0.006,0.145,0.033,0.209,0.064c0.318,0.154,0.336,0.417,0.548,0.44
		c0.187,0.055,0.416,0.014,0.614-0.094c0.201-0.106,0.371-0.254,0.526-0.408c0.15-0.183,0.276-0.354,0.401-0.531
		c0.065-0.086,0.13-0.168,0.207-0.24c0.037-0.034,0.08-0.077,0.15-0.081C23.311,30.522,23.296,30.618,23.303,30.65z M20.408,28.553
		c0.213-0.178,0.424-0.34,0.73-0.422c0.285-0.044,0.564-0.017,0.809,0.072c0.49,0.153,0.911,0.451,1.131,0.786
		c0.08,0.115,0.131,0.235,0.158,0.354c0.002,0.007,0.002,0.015,0.003,0.022c0.008,0.046,0.027,0.093,0.022,0.138
		c-0.004,0.027-0.02,0.044-0.028,0.069c-0.004,0.011-0.009,0.022-0.013,0.032c-0.014,0.034-0.036,0.051-0.054,0.081
		c-0.014,0.024-0.028,0.044-0.043,0.065c-0.027,0.037-0.049,0.087-0.076,0.114c-0.156,0.154-0.252,0.225-0.266,0.235
		c-0.001,0.001-0.009,0.008-0.009,0.008c0.002-0.002,0.003-0.003,0.006-0.006c0,0-0.007,0.006-0.007,0.006s-0.108,0.079-0.296,0.217
		c-0.202,0.1-0.491,0.328-0.906,0.329c-0.209-0.016-0.418-0.093-0.629-0.198c-0.22-0.108-0.414-0.215-0.618-0.406
		c-0.195-0.162-0.387-0.433-0.349-0.75C20.011,28.995,20.19,28.735,20.408,28.553z M18.843,34.114
		c0.053-0.118,0.103-0.232,0.163-0.343c0.016-0.027,0.031-0.055,0.056-0.082c0-0.021,0.076-0.037,0.091,0
		c0.018,0.025,0.015,0.037,0.02,0.056c0.01,0.063,0.009,0.119,0.011,0.176c0.01,0.224-0.044,0.44-0.126,0.601
		c-0.062,0.174-0.174,0.295-0.239,0.408c-0.012,0.014-0.017,0.019-0.028,0.031c0,0.001-0.001,0.001-0.001,0.001
		c-0.145,0.174-0.243,0.274-0.243,0.274s-0.118,0.092-0.325,0.252c-0.119,0.054-0.252,0.147-0.427,0.203
		c-0.064,0.023-0.151,0.033-0.222,0.053c-0.038,0.01-0.079,0.02-0.12,0.027c-0.087,0.02-0.16,0.049-0.257,0.062
		c-0.225,0.024-0.476,0.024-0.734-0.043c-0.132-0.019-0.257-0.104-0.391-0.162c-0.108-0.093-0.208-0.157-0.313-0.29l-0.134-0.169
		c-0.019-0.045-0.05-0.026-0.072-0.163c-0.011-0.017,0.072-0.107,0.134-0.081c0.053,0.017,0.027,0.011,0.041,0.017l0.029,0.02
		l0.05,0.036c0.117,0.103,0.226,0.183,0.344,0.247c0.108,0.086,0.237,0.127,0.373,0.152c0.13,0.052,0.27,0.041,0.409,0.039
		c0.275,0.002,0.559-0.074,0.806-0.199c0.134-0.047,0.242-0.135,0.354-0.217c0.121-0.071,0.222-0.16,0.306-0.263
		C18.597,34.589,18.72,34.32,18.843,34.114z M17.817,32.902c0.148-0.178,0.248-0.361,0.385-0.525
		c0.014-0.02,0.044-0.037,0.068-0.053c0.05-0.009,0.072,0.026,0.08,0.053c0.012,0.052,0.017,0.1,0.017,0.145
		c0.006,0.094-0.026,0.182-0.038,0.263c-0.023,0.055-0.049,0.086-0.073,0.133c-0.031,0.062-0.062,0.125-0.095,0.174
		c-0.012,0.019-0.023,0.05-0.036,0.065c-0.013,0.018-0.021,0.023-0.034,0.039c-0.038,0.049-0.072,0.088-0.102,0.119
		c-0.015,0.017-0.025,0.026-0.038,0.039c-0.045,0.049-0.073,0.074-0.07,0.076c-0.101,0.09-0.235,0.18-0.374,0.264
		c-0.081,0.059-0.172,0.119-0.291,0.164c-0.151,0.055-0.307,0.174-0.515,0.193c-0.201,0.045-0.426,0.033-0.659-0.001
		c-0.232-0.039-0.476-0.106-0.705-0.247c-0.109-0.055-0.242-0.175-0.318-0.312c-0.016-0.077-0.05-0.089-0.047-0.222
		c-0.001-0.035,0.006-0.08,0.016-0.125c0.008-0.025,0.029-0.064,0.054-0.092c0.042-0.033,0.112-0.05,0.136-0.037
		c0.227,0.075,0.26,0.203,0.373,0.254c0.082,0.07,0.209,0.104,0.322,0.146c0.241,0.071,0.499,0.103,0.751,0.101
		c0.261-0.021,0.478-0.016,0.711-0.137C17.51,33.258,17.687,33.098,17.817,32.902z M14.76,30.071
		c0.291-0.239,0.558-0.266,0.85-0.327c0.268-0.042,0.553-0.033,0.821,0.013c0.263,0.056,0.521,0.135,0.716,0.299
		c0.19,0.162,0.325,0.368,0.361,0.582c0.098,0.413,0.006,0.771-0.094,0.989c-0.011,0.028-0.022,0.035-0.034,0.059
		c-0.03,0.061-0.061,0.117-0.088,0.154c-0.006,0.008-0.009,0.012-0.015,0.019c-0.04,0.052-0.071,0.086-0.065,0.09
		c-0.003-0.007-0.04,0.024-0.095,0.063c-0.008,0.005-0.012,0.009-0.02,0.015c-0.042,0.029-0.101,0.061-0.174,0.091
		c-0.017,0.007-0.021,0.014-0.04,0.021c-0.019,0.008-0.051,0.011-0.072,0.019c-0.053,0.02-0.12,0.033-0.183,0.048
		c-0.206,0.048-0.445,0.08-0.737,0.082c-0.211,0-0.436-0.015-0.679-0.088c-0.129-0.03-0.244-0.086-0.343-0.159
		c-0.115-0.088-0.206-0.195-0.264-0.322c-0.136-0.246-0.186-0.539-0.159-0.828C14.455,30.621,14.575,30.26,14.76,30.071z"/>
	<path d="M26.301,38.752c-0.14-0.379-0.215-0.581-0.215-0.581c0.147,0.415,0.285,0.785,0.42,1.136
		C26.428,39.096,26.36,38.904,26.301,38.752z"/>
	<path d="M25.787,37.218c-0.086-0.313-0.157-0.633-0.216-0.974C25.645,36.621,25.714,36.95,25.787,37.218z"/>
	<path d="M31.13,41.92c-0.02,0.113-0.05,0.219-0.096,0.314C31.072,42.161,31.105,42.064,31.13,41.92z"/>
	<path d="M25.901,37.58c-0.032-0.084-0.063-0.182-0.092-0.285c0.08,0.284,0.169,0.569,0.277,0.876
		C26.086,38.171,26.021,37.965,25.901,37.58z"/>
	<path d="M22.778,30.101c0,0,0.002-0.002,0.003-0.002c0.012-0.01,0.073-0.063,0.162-0.149C22.89,29.999,22.847,30.045,22.778,30.101
		z"/>
	<path d="M30.83,42.389c-0.029,0.002-0.052-0.015-0.078-0.022c0.02,0.006,0.042,0.026,0.061,0.026
		C30.819,42.393,30.824,42.389,30.83,42.389z"/>
	<path d="M27.139,32.422c0.005-0.027,0.007-0.051,0.016-0.084c0.013-0.008-0.015-0.048,0.081-0.085
		c0.124,0.032,0.066,0.045,0.089,0.055c0.005,0.011,0.012,0.032,0.012,0.032c0.015,0.059,0.02,0.111,0.026,0.161l0.031,0.302
		c0.171,1.605,0.307,3.273,0.523,4.949c0.115,0.837,0.258,1.678,0.457,2.507c0.101,0.414,0.214,0.826,0.362,1.222
		c0.147,0.39,0.318,0.804,0.594,1.063c0.06,0.065,0.155,0.108,0.2,0.106c0.007,0.045,0.233-0.049,0.21-0.074
		c0.136-0.086,0.111-0.299,0.097-0.487c-0.081-0.409-0.189-0.827-0.283-1.253c-0.184-0.845-0.289-1.7-0.352-2.549
		c-0.124-1.699-0.087-3.377,0.076-4.99c0.051-0.402,0.102-0.802,0.153-1.197c0.074-0.39,0.148-0.776,0.221-1.157
		c0.033-0.194,0.092-0.383,0.09-0.553c0.002-0.167-0.192-0.201-0.376-0.217c-0.37-0.034-0.748-0.009-1.12-0.037
		c-0.373,0.003-0.742-0.062-1.093-0.172l-0.485-0.259l-0.411-0.329c-0.137-0.106-0.27-0.226-0.396-0.338
		c-0.124-0.091-0.267-0.281-0.364-0.269c-0.21,0.175-0.224,0.58-0.256,0.876c-0.019,1.284,0.051,2.474,0.089,3.521
		c0.027,1.05,0.118,1.96,0.193,2.71c0.134,0.741,0.244,1.323,0.385,1.704c0.117,0.386,0.18,0.592,0.18,0.592s0.077,0.201,0.22,0.579
		c0.149,0.375,0.335,0.938,0.66,1.62c0.292,0.691,0.725,1.512,1.414,2.297l0.272,0.284c0.044,0.05,0.096,0.094,0.149,0.138
		c0.014,0.012,0.046,0.038,0.071,0.061c-0.071-0.258-0.172-0.523-0.269-0.793c-0.227-0.543-0.384-1.146-0.572-1.767
		c-0.215-0.614-0.288-1.289-0.437-1.97c-0.154-0.682-0.222-1.4-0.315-2.139c-0.114-0.735-0.14-1.496-0.166-2.273
		c-0.016-0.385-0.039-0.785-0.016-1.184C27.107,32.826,27.114,32.628,27.139,32.422z"/>
	<path d="M26.264,48.295c-0.006-0.156-0.202-0.275-0.341-0.387c-0.155-0.112-0.325-0.215-0.503-0.319
		c-0.715-0.403-1.557-0.81-2.399-1.383c-1.689-1.166-3.158-3.076-4.657-5.11c-0.752-1.02-1.529-2.072-2.318-3.144
		c-0.814-1.038-1.621-2.161-2.668-2.959c-0.265-0.185-0.559-0.329-0.862-0.33c-0.299-0.006-0.597,0.144-0.86,0.331
		c-0.261,0.18-0.521,0.416-0.538,0.699c-0.023,0.281,0.186,0.554,0.412,0.771c0.233,0.257,0.477,0.267,0.796,0.086
		c0.263-0.146,0.538-0.298,0.769-0.54l0.064-0.054c0.068-0.04,0.101-0.013,0.134-0.009c0.054,0.021,0.091,0.047,0.129,0.07
		c0.07,0.053,0.134,0.106,0.195,0.164c0.122,0.111,0.235,0.229,0.347,0.346c0.222,0.236,0.433,0.478,0.64,0.72
		c0.821,0.969,1.567,1.942,2.253,2.883c0.342,0.47,0.668,0.933,0.973,1.388c0.325,0.438,0.64,0.86,0.941,1.267
		c0.288,0.418,0.619,0.772,0.938,1.106c0.316,0.336,0.615,0.654,0.897,0.955c0.624,0.533,1.152,1.022,1.616,1.387
		c0.972,0.672,1.528,1.058,1.528,1.058s0.147,0.084,0.422,0.241c0.275,0.158,0.682,0.388,1.213,0.641
		c0.135,0.059,0.269,0.139,0.429,0.178C25.952,48.412,26.174,48.41,26.264,48.295z"/>
	<path d="M24.17,47.538c0.02,0.012,0.054,0.03,0.076,0.043c-0.162-0.093-0.327-0.188-0.495-0.289
		C23.751,47.292,23.897,47.377,24.17,47.538z"/>
	<path d="M42.463,47.199c0.248-0.27,0.512-0.541,0.789-0.811c0.557-0.539,1.143-1.106,1.75-1.695
		c0.59-0.596,1.229-1.209,1.732-1.914c0.058-0.081,0.115-0.194,0.131-0.248c0.005,0.003,0.015-0.008,0.001-0.043
		c0.015,0.029-0.019-0.01-0.023-0.014c-0.026-0.023-0.069-0.048-0.114-0.066c-0.185-0.077-0.403-0.112-0.619-0.137
		c-0.436-0.043-0.883-0.033-1.315,0.03c-0.226,0.033-0.414,0.07-0.618,0.164c-0.158,0.103-0.322,0.248-0.473,0.413
		c-0.307,0.314-0.584,0.66-0.854,1.016l-0.391,0.53l-0.186,0.263c-0.004,0.006-0.008,0.015-0.014,0.022
		c0.329-0.185,0.672-0.461,1.002-0.678c0.348-0.242,0.696-0.472,1.057-0.669c0.096-0.051,0.173-0.094,0.293-0.137
		c0.033-0.011,0.068-0.018,0.102-0.023l0.038,0.002l0.019,0.002c0.069,0.049,0.041,0.062,0.047,0.094
		c-0.034,0.088-0.07,0.104-0.106,0.148c-0.147,0.144-0.302,0.265-0.455,0.385c-0.614,0.479-1.237,0.868-1.772,1.275
		c-0.541,0.4-1.053,0.75-1.457,1.125c-0.416,0.361-0.789,0.658-1.055,0.951c-0.302,0.254-0.433,0.578-0.347,0.785
		c0.024,0.096,0.063,0.158,0.095,0.202c0.02,0.026,0.03,0.056,0.055,0.079c0,0.001,0.002,0.002,0.004,0.003
		c0.005,0.005,0.084,0.077,0.234,0.216c0.154,0.145,0.385,0.354,0.711,0.573c0.321,0.194,0.766,0.497,1.307,0.404
		c0.254-0.058,0.531-0.242,0.564-0.542c0.047-0.312-0.212-0.541-0.474-0.76c-0.138-0.137-0.104-0.383,0.011-0.516
		C42.216,47.465,42.35,47.346,42.463,47.199z"/>
	<path d="M23.923,38.656c0.027,0.018,0.052,0.039,0.065,0.055c0.033,0.034,0.056,0.064,0.081,0.098l0.132,0.192
		c0.165,0.259,0.31,0.524,0.454,0.793c0.275,0.537,0.574,1.058,0.893,1.573c0.313,0.517,0.642,1.023,0.987,1.517
		c0.341,0.466,0.714,1.035,1.113,1.315c0.132-0.016,0.452-0.284,0.556-0.482c0.127-0.212-0.054-0.486-0.199-0.719
		c-0.351-0.455-0.606-1.004-0.904-1.488c-0.236-0.519-0.469-1.029-0.697-1.529c-0.216-0.504-0.397-1.013-0.589-1.498
		c-0.208-0.482-0.314-0.98-0.461-1.448c-0.075-0.231-0.134-0.472-0.171-0.705c-0.019-0.121-0.067-0.201-0.158-0.229
		c-0.086-0.008-0.199,0.053-0.282,0.114c-0.678,0.606-1.429,1.036-2.147,1.229c-0.358,0.095-0.701,0.17-1.025,0.162
		c-0.32,0.033-0.617-0.127-0.86-0.088c-0.065,0.229,0.132,0.463,0.199,0.64c0.097,0.182,0.18,0.336,0.247,0.462
		c0.137,0.249,0.21,0.382,0.21,0.382s0.315,0.519,0.867,1.425c0.281,0.45,0.668,0.967,1.087,1.574
		c0.476,0.564,0.977,1.229,1.645,1.852c0.316,0.33,0.664,0.644,1.046,0.951c0.19,0.159,0.386,0.303,0.582,0.438
		c0.21,0.17,0.494,0.106,0.517-0.14c0.008-0.485-0.316-0.97-0.598-1.416c-0.306-0.445-0.661-0.887-0.973-1.365
		c-0.625-0.961-1.261-1.937-1.706-3.096c-0.064-0.164-0.081-0.263-0.105-0.476c0.009-0.021-0.009-0.046,0.07-0.101
		C23.859,38.62,23.892,38.645,23.923,38.656z"/>
	<path d="M21.097,45.325c0.372,0.319,0.719,0.614,1.026,0.854C21.773,45.91,21.432,45.622,21.097,45.325z"/>
	<path d="M23.759,24.717c0.005,0.013,0.012,0.019,0.017,0.031c-0.008-0.02-0.016-0.038-0.024-0.06
		C23.755,24.697,23.757,24.708,23.759,24.717z"/>
	<path d="M24.205,25.173c0.274,0.111,0.53,0.206,0.635,0.237c-0.005-0.001-0.01-0.005-0.014-0.005
		C24.421,25.254,24.205,25.173,24.205,25.173z"/>
	<path d="M16.681,23.981c0.826,0.329,1.799,0.349,2.575-0.054c0.709-0.409,1.294-1.402,1.017-2.164
		c-0.176-0.367-0.666-0.458-1.086-0.439c-0.209,0.011-0.42,0.074-0.556,0.21c-0.127,0.137-0.185,0.333-0.11,0.521
		c0.034,0.09,0.087,0.167,0.145,0.252l0.24,0.225c0.046,0.04,0.091,0.068,0.137,0.117l0.069,0.075
		c0.023,0.029,0.048,0.121,0.032,0.167c-0.085,0.122-0.162,0.112-0.219,0.129c-0.067,0.019-0.119,0.014-0.179,0.022
		c-0.461,0.03-0.902,0.023-1.355,0.005c-0.438,0.002-0.944-0.115-1.273-0.447c-0.147-0.152-0.308-0.326-0.408-0.531
		c-0.118-0.192-0.236-0.383-0.276-0.606c-0.264-0.856-0.085-1.765,0.277-2.52c0.38-0.761,0.972-1.364,1.6-1.85
		c0.679-0.449,1.469-0.612,2.215-0.648c0.749-0.031,1.49,0.09,2.117,0.395c0.639,0.272,1.176,0.752,1.408,1.357
		c0.209,0.601,0.309,1.196,0.355,1.756c0.108,1.12,0.114,2.1,0.154,2.905c0.038,0.804,0.072,1.442,0.204,1.855
		c0.07,0.215,0.188,0.324,0.284,0.382c0.002,0.001,0.003,0.002,0.005,0.003c0.03,0.018,0.051,0.024,0.074,0.034
		c-0.019-0.008-0.035-0.013-0.059-0.026c0.042,0.023,0.086,0.045,0.136,0.065c0,0,0.216,0.079,0.622,0.226
		c0.029,0.021,0.053,0.021,0.07,0.008c0.001-0.001,0.001-0.003,0.002-0.004c0.015-0.014,0.025-0.038,0.026-0.071
		c0.01-0.059,0.012-0.123,0.016-0.189c0-0.133,0-0.277,0-0.434c-0.007-0.313-0.025-0.673-0.051-1.075
		c-0.052-0.805-0.132-1.781-0.25-2.897c-0.06-0.558-0.127-1.152-0.219-1.775c-0.048-0.309-0.094-0.634-0.18-0.944
		c-0.126-0.299-0.29-0.595-0.503-0.863c-0.851-1.084-2.358-1.706-3.921-1.707c-1.552-0.009-3.268,0.641-4.27,2.047
		c-0.511,0.681-0.924,1.468-1.157,2.308c-0.248,0.834-0.183,1.769,0.265,2.531C15.093,23.099,15.854,23.66,16.681,23.981z"/>
	<path d="M16.553,37.133c0.009,0.006,0.021,0.016,0.03,0.021c0.095,0.049,0.18,0.089,0.262,0.125
		C16.743,37.234,16.64,37.191,16.553,37.133z"/>
	<path d="M23.406,47.059c-0.347-0.224-0.695-0.447-1.033-0.699C22.822,46.664,23.169,46.898,23.406,47.059z"/>
	<path d="M23.751,47.292c0,0-0.124-0.084-0.345-0.233C23.522,47.133,23.634,47.223,23.751,47.292z"/>
	<path d="M24.872,25.42c0.004,0.001,0.014,0.004,0.017,0.005c0.001,0,0.001-0.007,0.003-0.007
		C24.885,25.42,24.878,25.422,24.872,25.42z"/>
</g>
</svg>
