<?xml version="1.0" encoding="utf-8"?>
<!-- Generator: Adobe Illustrator 17.0.0, SVG Export Plug-In . SVG Version: 6.00 Build 0)  -->
<!DOCTYPE svg PUBLIC "-//W3C//DTD SVG 1.1//EN" "http://www.w3.org/Graphics/SVG/1.1/DTD/svg11.dtd">
<svg version="1.1" id="Capa_1" xmlns="http://www.w3.org/2000/svg" xmlns:xlink="http://www.w3.org/1999/xlink" x="0px" y="0px"
	 width="64px" height="64px" viewBox="0 0 64 64" enable-background="new 0 0 64 64" xml:space="preserve">
<path fill="#1D1D1B" d="M32.103,6.932c-13.177,0-23.897,10.72-23.897,23.897s10.72,23.897,23.897,23.897S56,44.005,56,30.829
	C56,17.653,45.28,6.932,32.103,6.932z M33.103,44.817c-0.161,0.058-0.327,0.105-0.5,0.134c-0.163,0.029-0.328,0.052-0.5,0.052
	c-1.642,0-2.974-1.331-2.974-2.974s1.331-2.974,2.974-2.974c0.171,0,0.337,0.023,0.5,0.05c0.173,0.029,0.338,0.076,0.5,0.134
	c1.148,0.412,1.974,1.499,1.974,2.789C35.077,43.318,34.251,44.405,33.103,44.817z M36.792,29.804
	c-0.364,0.168-0.72,0.364-1.07,0.574c-1.144-0.356-2.359-0.548-3.619-0.548c-6.727,0-12.201,5.473-12.201,12.201
	c0,4.244,2.181,7.985,5.478,10.171C16.294,49.345,9.702,40.858,9.702,30.829c0-12.372,10.029-22.401,22.401-22.401
	c6.186,0,11.201,5.015,11.201,11.201C43.304,24.141,40.636,28.03,36.792,29.804z M36.077,19.628c0,2.191-1.783,3.974-3.974,3.974
	c-2.191,0-3.974-1.783-3.974-3.974s1.783-3.974,3.974-3.974C34.294,15.654,36.077,17.437,36.077,19.628z"/>
</svg>
