<?xml version="1.0" encoding="utf-8"?>
<!-- Generator: Adobe Illustrator 16.0.4, SVG Export Plug-In . SVG Version: 6.00 Build 0)  -->
<!DOCTYPE svg PUBLIC "-//W3C//DTD SVG 1.1//EN" "http://www.w3.org/Graphics/SVG/1.1/DTD/svg11.dtd">
<svg version="1.1" id="Capa_1" xmlns="http://www.w3.org/2000/svg" xmlns:xlink="http://www.w3.org/1999/xlink" x="0px" y="0px"
	 width="64px" height="64px" viewBox="0 0 64 64" enable-background="new 0 0 64 64" xml:space="preserve">
<g>
	<path d="M26.219,12.801c1.282-0.352,2.65-0.543,4.073-0.543s2.79,0.192,4.073,0.543c0.533,0.146,0.98-0.151,1.004-0.703
		c0.016-0.382,0.033-0.8,0.052-1.204c0.024-0.552-0.396-1.027-0.946-1.059c-0.871-0.049-1.65-0.084-2.393-0.106
		c0-0.01,0.003-0.019,0.003-0.029c0-1.149-0.935-2.084-2.083-2.084c-1.149,0-2.084,0.935-2.084,2.084
		c0,0.017,0.005,0.032,0.005,0.049c-0.571,0.022-1.162,0.049-1.812,0.086c-0.553,0.031-0.973,0.507-0.948,1.058
		c0.018,0.405,0.035,0.823,0.052,1.206C25.239,12.651,25.686,12.947,26.219,12.801z M30,8.616c0.598,0,1.083,0.486,1.083,1.084
		c0,0.002-0.001,0.004-0.001,0.006c-0.72-0.01-1.429-0.006-2.162,0.012c0-0.006-0.004-0.011-0.004-0.018
		C28.916,9.102,29.402,8.616,30,8.616z"/>
	<path d="M34.336,35.393c-1.273,0.348-2.633,0.537-4.045,0.537s-2.77-0.189-4.045-0.537c-0.533-0.145-0.981,0.153-1.007,0.705
		c-0.024,0.519-0.048,1.094-0.075,1.649c-0.027,0.552,0.393,1.026,0.945,1.058c3.184,0.182,5.179,0.182,8.364,0
		c0.553-0.033,0.971-0.508,0.945-1.06c-0.027-0.556-0.051-1.132-0.075-1.649C35.318,35.544,34.869,35.248,34.336,35.393z"/>
	<path d="M35.164,14.183c-1.502-0.522-3.146-0.814-4.872-0.814s-3.37,0.292-4.872,0.814c-4.629,1.609-7.887,5.438-7.887,9.91
		c0,4.48,3.271,8.314,7.914,9.918c1.495,0.517,3.129,0.806,4.845,0.806s3.351-0.289,4.845-0.806
		c4.643-1.603,7.914-5.438,7.914-9.918C43.051,19.621,39.793,15.793,35.164,14.183z"/>
	<circle cx="30" cy="40.789" r="1"/>
	<circle cx="30" cy="43.229" r="1"/>
	<circle cx="30" cy="45.667" r="1"/>
	<path d="M31.624,47.417c-1.182,0-2.067,0-3.249,0c-0.552,0-0.995,0.448-1.043,0.998c-0.182,2.091-0.887,3.495-1.069,5.586
		C26.215,54.551,26.668,55,27.22,55c1.182,0,2.067,0,3.249,0c0.552,0,0.996-0.448,1.043-0.998c0.182-2.091,0.887-3.495,1.069-5.586
		C32.629,47.866,32.176,47.417,31.624,47.417z"/>
</g>
</svg>
