<?xml version="1.0" encoding="utf-8"?>
<!-- Generator: Adobe Illustrator 16.0.4, SVG Export Plug-In . SVG Version: 6.00 Build 0)  -->
<!DOCTYPE svg PUBLIC "-//W3C//DTD SVG 1.1//EN" "http://www.w3.org/Graphics/SVG/1.1/DTD/svg11.dtd">
<svg version="1.1" id="Capa_1" xmlns="http://www.w3.org/2000/svg" xmlns:xlink="http://www.w3.org/1999/xlink" x="0px" y="0px"
	 width="64px" height="64px" viewBox="0 0 64 64" enable-background="new 0 0 64 64" xml:space="preserve">
<g>
	<path d="M45.119,44.096c-5.284,0-6.68,2.984-7.016,5.076c-0.021,0-0.037-0.003-0.058-0.003c0,0-0.024,0.192-0.036,0.494
		c-2.978-1.149-5.66-2.574-7.704-5.196c-1.206-1.547-1.902-3.129-2.281-4.76c1.986-0.077,4.401-1.232,5.23-3.145
		c-0.165,0.381-2.595,0.524-3.009,0.51c-1.008-0.036-2.011-0.426-2.617-1.247c0.002-1.417,0.121-2.877,0.255-4.388
		c0.364-4.092-1.671-7.17-5.661-8.315c-5.135-1.473-9.634,4.174-8.191,9.033c0.444,1.496,0.902,2.992,1.459,4.449
		c0.27,0.705-0.956,2.342-1.403,2.787c-1.055,1.053-2.225,1.129-3.616,1.159c-0.257-0.017-0.403-0.026-0.403-0.026
		s0.119,0.082,0.326,0.227c0.217,0.125,0.51,0.406,0.936,0.57c2.086,0.807,4.382,0.83,6.315-0.411
		c0.521,0.804,1.09,1.577,1.68,2.291c4.081,4.936,10.884,8.161,17.35,7.393c0.439-0.052,0.885-0.184,1.331-0.292
		c-0.005,0.52,0.039,0.868,0.039,0.868c0.021,0,0.038-0.003,0.058-0.003c0.336,2.092,1.731,5.076,7.016,5.076
		c0,0,0.505-4.126-2.809-6.073C45.624,48.223,45.119,44.096,45.119,44.096z M18.215,26.683c-0.342,0.546-0.892,0.818-1.228,0.607
		c-0.336-0.211-0.331-0.824,0.011-1.37s0.892-0.818,1.228-0.607S18.558,26.137,18.215,26.683z M23.372,25.313
		c0.336-0.211,0.886,0.061,1.228,0.607c0.342,0.546,0.347,1.159,0.011,1.37s-0.886-0.061-1.228-0.607
		C23.041,26.137,23.036,25.524,23.372,25.313z M38.146,50.204c-0.199,0.002-0.42,0.004-0.66,0.006
		c-0.239-0.021-0.498-0.044-0.773-0.069c-0.554-0.045-1.186-0.089-1.85-0.266c-0.336-0.074-0.687-0.15-1.049-0.23
		c-0.354-0.113-0.719-0.231-1.094-0.354c-0.768-0.209-1.509-0.604-2.302-0.952c-0.738-0.448-1.552-0.842-2.26-1.419
		c-0.756-0.512-1.421-1.159-2.113-1.775c-0.615-0.692-1.263-1.355-1.774-2.112c-0.576-0.709-0.97-1.522-1.418-2.261
		c-0.35-0.793-0.742-1.535-0.952-2.301c-0.122-0.375-0.24-0.742-0.354-1.095c-0.08-0.362-0.156-0.712-0.23-1.049
		c-0.176-0.663-0.221-1.3-0.266-1.854c-0.025-0.277-0.048-0.535-0.069-0.775c0.002-0.238,0.005-0.457,0.007-0.654
		c0.022-0.791,0.034-1.243,0.034-1.243s0.058,0.448,0.159,1.233c0.022,0.195,0.047,0.414,0.074,0.65
		c0.05,0.23,0.105,0.479,0.163,0.746c0.114,0.532,0.233,1.127,0.443,1.762c0.095,0.318,0.195,0.65,0.298,0.994
		c0.136,0.33,0.277,0.674,0.421,1.025c0.252,0.719,0.698,1.395,1.045,2.141c0.452,0.69,0.87,1.435,1.42,2.104
		c0.493,0.712,1.119,1.332,1.707,1.982c0.65,0.59,1.269,1.215,1.982,1.709c0.67,0.549,1.413,0.968,2.104,1.42
		c0.746,0.347,1.423,0.791,2.141,1.043c0.352,0.146,0.694,0.285,1.025,0.422c0.344,0.103,0.676,0.201,0.993,0.298
		c0.635,0.21,1.233,0.329,1.767,0.442c0.268,0.059,0.518,0.112,0.748,0.164c0.235,0.026,0.45,0.051,0.646,0.073
		c0.784,0.103,1.231,0.16,1.231,0.16S38.938,50.182,38.146,50.204z"/>
	<path d="M54.141,24.318c0.252,0.018,0.399,0.028,0.399,0.028s-0.119-0.083-0.326-0.227c-0.217-0.125-0.51-0.406-0.937-0.57
		c-2.086-0.807-4.381-0.83-6.314,0.411c-0.521-0.804-1.09-1.577-1.68-2.291c-4.081-4.936-10.885-8.162-17.35-7.393
		c-0.439,0.052-0.884,0.184-1.331,0.292c0.005-0.52-0.039-0.868-0.039-0.868c-0.021,0-0.038,0.003-0.058,0.003
		c-0.335-2.092-1.731-5.076-7.015-5.076c0,0-0.505,4.126,2.808,6.073c-3.313,1.947-2.808,6.073-2.808,6.073
		c5.284,0,6.68-2.984,7.015-5.076c0.021,0,0.038,0.003,0.058,0.003c0,0,0.024-0.192,0.036-0.494c2.978,1.15,5.66,2.574,7.704,5.196
		c1.206,1.547,1.902,3.129,2.281,4.76c-1.986,0.077-4.401,1.232-5.23,3.145c0.165-0.381,2.595-0.525,3.009-0.51
		c1.008,0.036,2.011,0.425,2.617,1.247c-0.002,1.417-0.121,2.877-0.256,4.388c-0.361,4.09,1.674,7.17,5.664,8.314
		c5.135,1.473,9.635-4.174,8.191-9.033c-0.443-1.496-0.902-2.991-1.459-4.448c-0.27-0.706,0.956-2.342,1.402-2.787
		C51.579,24.425,52.749,24.348,54.141,24.318z M41.238,39.557c-0.336,0.211-0.887-0.062-1.229-0.607
		c-0.342-0.547-0.347-1.159-0.011-1.37s0.886,0.062,1.228,0.606C41.568,38.732,41.574,39.346,41.238,39.557z M43.62,31.825
		c-0.022,0.791-0.034,1.243-0.034,1.243s-0.059-0.448-0.159-1.233c-0.022-0.196-0.047-0.414-0.075-0.65
		c-0.05-0.231-0.104-0.48-0.162-0.747c-0.114-0.532-0.233-1.126-0.443-1.762c-0.096-0.318-0.195-0.65-0.298-0.994
		c-0.136-0.331-0.277-0.674-0.421-1.026c-0.252-0.718-0.698-1.394-1.045-2.14c-0.453-0.691-0.871-1.435-1.42-2.104
		c-0.494-0.712-1.119-1.332-1.707-1.982c-0.651-0.587-1.271-1.214-1.982-1.707c-0.67-0.549-1.413-0.968-2.104-1.42
		c-0.746-0.347-1.423-0.791-2.141-1.044c-0.352-0.145-0.695-0.285-1.026-0.421c-0.343-0.103-0.675-0.202-0.993-0.298
		c-0.635-0.21-1.234-0.329-1.767-0.443c-0.267-0.058-0.517-0.112-0.748-0.163c-0.235-0.027-0.45-0.052-0.645-0.074
		c-0.784-0.102-1.232-0.159-1.232-0.159s0.453-0.013,1.244-0.035c0.199-0.002,0.42-0.004,0.66-0.006
		c0.239,0.021,0.497,0.044,0.773,0.069c0.554,0.045,1.185,0.089,1.85,0.266c0.336,0.074,0.686,0.15,1.049,0.23
		c0.353,0.114,0.719,0.232,1.094,0.354c0.766,0.209,1.508,0.603,2.301,0.952c0.737,0.448,1.552,0.842,2.26,1.419
		c0.757,0.512,1.421,1.159,2.113,1.775c0.614,0.693,1.263,1.356,1.774,2.113c0.576,0.709,0.97,1.522,1.418,2.261
		c0.351,0.792,0.742,1.534,0.952,2.301c0.122,0.375,0.24,0.741,0.354,1.094c0.08,0.362,0.156,0.712,0.23,1.049
		c0.176,0.663,0.221,1.299,0.266,1.855c0.025,0.277,0.049,0.535,0.069,0.775C43.625,31.408,43.622,31.627,43.62,31.825z
		 M47.611,38.949c-0.342,0.546-0.893,0.818-1.229,0.607s-0.331-0.824,0.012-1.371c0.342-0.545,0.892-0.817,1.228-0.606
		S47.954,38.402,47.611,38.949z"/>
</g>
</svg>
